solid bat_wing_left
  facet normal 0.011805 0.000000 0.999930
    outer loop
      vertex 2 10 1.25
      vertex 2 5.2 1.25
      vertex 16.429505665558217 22.731764705882355 1.0796517177597793
    endloop
  endfacet
  facet normal 0.011805 0.000000 0.999930
    outer loop
      vertex 2 10 1.25
      vertex 16.429505665558217 22.731764705882355 1.0796517177597793
      vertex 16.429505665558217 31.8 1.0796517177597793
    endloop
  endfacet
  facet normal 0.011805 0.000000 0.999930
    outer loop
      vertex 2 10 -1.25
      vertex 16.37049433444178 22.731764705882355 -1.4196517177597792
      vertex 16.37049433444178 31.8 -1.4196517177597792
    endloop
  endfacet
  facet normal 0.011805 0.000000 0.999930
    outer loop
      vertex 2 10 -1.25
      vertex 2 5.2 -1.25
      vertex 16.37049433444178 22.731764705882355 -1.4196517177597792
    endloop
  endfacet
  facet normal 0.011805 0.000000 0.999930
    outer loop
      vertex 2 5.2 1.25
      vertex 2 0.40000000000000036 1.25
      vertex 16.429505665558217 13.663529411764706 1.0796517177597793
    endloop
  endfacet
  facet normal 0.011805 0.000000 0.999930
    outer loop
      vertex 2 5.2 1.25
      vertex 16.429505665558217 13.663529411764706 1.0796517177597793
      vertex 16.429505665558217 22.731764705882355 1.0796517177597793
    endloop
  endfacet
  facet normal 0.011805 0.000000 0.999930
    outer loop
      vertex 2 5.2 -1.25
      vertex 16.37049433444178 13.663529411764706 -1.4196517177597792
      vertex 16.37049433444178 22.731764705882355 -1.4196517177597792
    endloop
  endfacet
  facet normal 0.011805 0.000000 0.999930
    outer loop
      vertex 2 5.2 -1.25
      vertex 2 0.40000000000000036 -1.25
      vertex 16.37049433444178 13.663529411764706 -1.4196517177597792
    endloop
  endfacet
  facet normal 0.011805 0.000000 0.999930
    outer loop
      vertex 2 0.40000000000000036 1.25
      vertex 2 -4.4 1.25
      vertex 16.429505665558217 4.595294117647057 1.0796517177597793
    endloop
  endfacet
  facet normal 0.011805 0.000000 0.999930
    outer loop
      vertex 2 0.40000000000000036 1.25
      vertex 16.429505665558217 4.595294117647057 1.0796517177597793
      vertex 16.429505665558217 13.663529411764706 1.0796517177597793
    endloop
  endfacet
  facet normal 0.011805 0.000000 0.999930
    outer loop
      vertex 2 0.40000000000000036 -1.25
      vertex 16.37049433444178 4.595294117647057 -1.4196517177597792
      vertex 16.37049433444178 13.663529411764706 -1.4196517177597792
    endloop
  endfacet
  facet normal 0.011805 0.000000 0.999930
    outer loop
      vertex 2 0.40000000000000036 -1.25
      vertex 2 -4.4 -1.25
      vertex 16.37049433444178 4.595294117647057 -1.4196517177597792
    endloop
  endfacet
  facet normal 0.011805 0.000000 0.999930
    outer loop
      vertex 2 -4.4 1.25
      vertex 2 -9.2 1.25
      vertex 16.429505665558217 -4.472941176470588 1.0796517177597793
    endloop
  endfacet
  facet normal 0.011805 0.000000 0.999930
    outer loop
      vertex 2 -4.4 1.25
      vertex 16.429505665558217 -4.472941176470588 1.0796517177597793
      vertex 16.429505665558217 4.595294117647057 1.0796517177597793
    endloop
  endfacet
  facet normal 0.011805 0.000000 0.999930
    outer loop
      vertex 2 -4.4 -1.25
      vertex 16.37049433444178 -4.472941176470588 -1.4196517177597792
      vertex 16.37049433444178 4.595294117647057 -1.4196517177597792
    endloop
  endfacet
  facet normal 0.011805 0.000000 0.999930
    outer loop
      vertex 2 -4.4 -1.25
      vertex 2 -9.2 -1.25
      vertex 16.37049433444178 -4.472941176470588 -1.4196517177597792
    endloop
  endfacet
  facet normal 0.011805 0.000000 0.999930
    outer loop
      vertex 2 -9.2 1.25
      vertex 2 -14 1.25
      vertex 16.429505665558217 -13.541176470588237 1.0796517177597793
    endloop
  endfacet
  facet normal 0.011805 0.000000 0.999930
    outer loop
      vertex 2 -9.2 1.25
      vertex 16.429505665558217 -13.541176470588237 1.0796517177597793
      vertex 16.429505665558217 -4.472941176470588 1.0796517177597793
    endloop
  endfacet
  facet normal 0.011805 0.000000 0.999930
    outer loop
      vertex 2 -9.2 -1.25
      vertex 16.37049433444178 -13.541176470588237 -1.4196517177597792
      vertex 16.37049433444178 -4.472941176470588 -1.4196517177597792
    endloop
  endfacet
  facet normal 0.011805 0.000000 0.999930
    outer loop
      vertex 2 -9.2 -1.25
      vertex 2 -14 -1.25
      vertex 16.37049433444178 -13.541176470588237 -1.4196517177597792
    endloop
  endfacet
  facet normal 0.035394 0.000000 0.999373
    outer loop
      vertex 16.429505665558217 31.8 1.0796517177597793
      vertex 16.429505665558217 22.731764705882355 1.0796517177597793
      vertex 30.858962073494375 29.063529411764705 0.5686086151750049
    endloop
  endfacet
  facet normal 0.035394 0.000000 0.999373
    outer loop
      vertex 16.429505665558217 31.8 1.0796517177597793
      vertex 30.858962073494375 29.063529411764705 0.5686086151750049
      vertex 30.858962073494375 39.6 0.5686086151750049
    endloop
  endfacet
  facet normal 0.035394 0.000000 0.999373
    outer loop
      vertex 16.37049433444178 31.8 -1.4196517177597792
      vertex 30.741037926505626 29.063529411764705 -1.9286086151750053
      vertex 30.741037926505626 39.6 -1.9286086151750053
    endloop
  endfacet
  facet normal 0.035394 0.000000 0.999373
    outer loop
      vertex 16.37049433444178 31.8 -1.4196517177597792
      vertex 16.37049433444178 22.731764705882355 -1.4196517177597792
      vertex 30.741037926505626 29.063529411764705 -1.9286086151750053
    endloop
  endfacet
  facet normal 0.035394 0.000000 0.999373
    outer loop
      vertex 16.429505665558217 22.731764705882355 1.0796517177597793
      vertex 16.429505665558217 13.663529411764706 1.0796517177597793
      vertex 30.858962073494375 18.527058823529412 0.5686086151750049
    endloop
  endfacet
  facet normal 0.035394 0.000000 0.999373
    outer loop
      vertex 16.429505665558217 22.731764705882355 1.0796517177597793
      vertex 30.858962073494375 18.527058823529412 0.5686086151750049
      vertex 30.858962073494375 29.063529411764705 0.5686086151750049
    endloop
  endfacet
  facet normal 0.035394 0.000000 0.999373
    outer loop
      vertex 16.37049433444178 22.731764705882355 -1.4196517177597792
      vertex 30.741037926505626 18.527058823529412 -1.9286086151750053
      vertex 30.741037926505626 29.063529411764705 -1.9286086151750053
    endloop
  endfacet
  facet normal 0.035394 0.000000 0.999373
    outer loop
      vertex 16.37049433444178 22.731764705882355 -1.4196517177597792
      vertex 16.37049433444178 13.663529411764706 -1.4196517177597792
      vertex 30.741037926505626 18.527058823529412 -1.9286086151750053
    endloop
  endfacet
  facet normal 0.035394 0.000000 0.999373
    outer loop
      vertex 16.429505665558217 13.663529411764706 1.0796517177597793
      vertex 16.429505665558217 4.595294117647057 1.0796517177597793
      vertex 30.858962073494375 7.9905882352941155 0.5686086151750049
    endloop
  endfacet
  facet normal 0.035394 0.000000 0.999373
    outer loop
      vertex 16.429505665558217 13.663529411764706 1.0796517177597793
      vertex 30.858962073494375 7.9905882352941155 0.5686086151750049
      vertex 30.858962073494375 18.527058823529412 0.5686086151750049
    endloop
  endfacet
  facet normal 0.035394 0.000000 0.999373
    outer loop
      vertex 16.37049433444178 13.663529411764706 -1.4196517177597792
      vertex 30.741037926505626 7.9905882352941155 -1.9286086151750053
      vertex 30.741037926505626 18.527058823529412 -1.9286086151750053
    endloop
  endfacet
  facet normal 0.035394 0.000000 0.999373
    outer loop
      vertex 16.37049433444178 13.663529411764706 -1.4196517177597792
      vertex 16.37049433444178 4.595294117647057 -1.4196517177597792
      vertex 30.741037926505626 7.9905882352941155 -1.9286086151750053
    endloop
  endfacet
  facet normal 0.035394 0.000000 0.999373
    outer loop
      vertex 16.429505665558217 4.595294117647057 1.0796517177597793
      vertex 16.429505665558217 -4.472941176470588 1.0796517177597793
      vertex 30.858962073494375 -2.5458823529411774 0.5686086151750049
    endloop
  endfacet
  facet normal 0.035394 0.000000 0.999373
    outer loop
      vertex 16.429505665558217 4.595294117647057 1.0796517177597793
      vertex 30.858962073494375 -2.5458823529411774 0.5686086151750049
      vertex 30.858962073494375 7.9905882352941155 0.5686086151750049
    endloop
  endfacet
  facet normal 0.035394 0.000000 0.999373
    outer loop
      vertex 16.37049433444178 4.595294117647057 -1.4196517177597792
      vertex 30.741037926505626 -2.5458823529411774 -1.9286086151750053
      vertex 30.741037926505626 7.9905882352941155 -1.9286086151750053
    endloop
  endfacet
  facet normal 0.035394 0.000000 0.999373
    outer loop
      vertex 16.37049433444178 4.595294117647057 -1.4196517177597792
      vertex 16.37049433444178 -4.472941176470588 -1.4196517177597792
      vertex 30.741037926505626 -2.5458823529411774 -1.9286086151750053
    endloop
  endfacet
  facet normal 0.035394 0.000000 0.999373
    outer loop
      vertex 16.429505665558217 -4.472941176470588 1.0796517177597793
      vertex 16.429505665558217 -13.541176470588237 1.0796517177597793
      vertex 30.858962073494375 -13.082352941176474 0.5686086151750049
    endloop
  endfacet
  facet normal 0.035394 0.000000 0.999373
    outer loop
      vertex 16.429505665558217 -4.472941176470588 1.0796517177597793
      vertex 30.858962073494375 -13.082352941176474 0.5686086151750049
      vertex 30.858962073494375 -2.5458823529411774 0.5686086151750049
    endloop
  endfacet
  facet normal 0.035394 0.000000 0.999373
    outer loop
      vertex 16.37049433444178 -4.472941176470588 -1.4196517177597792
      vertex 30.741037926505626 -13.082352941176474 -1.9286086151750053
      vertex 30.741037926505626 -2.5458823529411774 -1.9286086151750053
    endloop
  endfacet
  facet normal 0.035394 0.000000 0.999373
    outer loop
      vertex 16.37049433444178 -4.472941176470588 -1.4196517177597792
      vertex 16.37049433444178 -13.541176470588237 -1.4196517177597792
      vertex 30.741037926505626 -13.082352941176474 -1.9286086151750053
    endloop
  endfacet
  facet normal 0.058925 0.000000 0.998262
    outer loop
      vertex 30.858962073494375 39.6 0.5686086151750049
      vertex 30.858962073494375 29.063529411764705 0.5686086151750049
      vertex 45.28832037628217 29.991157894736844 -0.28312409954583884
    endloop
  endfacet
  facet normal 0.058925 0.000000 0.998262
    outer loop
      vertex 30.858962073494375 39.6 0.5686086151750049
      vertex 45.28832037628217 29.991157894736844 -0.28312409954583884
      vertex 45.28832037628217 40.36 -0.28312409954583884
    endloop
  endfacet
  facet normal 0.058925 0.000000 0.998262
    outer loop
      vertex 30.741037926505626 39.6 -1.9286086151750053
      vertex 45.11167962371783 29.991157894736844 -2.7768759004541623
      vertex 45.11167962371783 40.36 -2.7768759004541623
    endloop
  endfacet
  facet normal 0.058925 0.000000 0.998262
    outer loop
      vertex 30.741037926505626 39.6 -1.9286086151750053
      vertex 30.741037926505626 29.063529411764705 -1.9286086151750053
      vertex 45.11167962371783 29.991157894736844 -2.7768759004541623
    endloop
  endfacet
  facet normal 0.058925 0.000000 0.998262
    outer loop
      vertex 30.858962073494375 29.063529411764705 0.5686086151750049
      vertex 30.858962073494375 18.527058823529412 0.5686086151750049
      vertex 45.28832037628217 19.62231578947368 -0.28312409954583884
    endloop
  endfacet
  facet normal 0.058925 0.000000 0.998262
    outer loop
      vertex 30.858962073494375 29.063529411764705 0.5686086151750049
      vertex 45.28832037628217 19.62231578947368 -0.28312409954583884
      vertex 45.28832037628217 29.991157894736844 -0.28312409954583884
    endloop
  endfacet
  facet normal 0.058925 0.000000 0.998262
    outer loop
      vertex 30.741037926505626 29.063529411764705 -1.9286086151750053
      vertex 45.11167962371783 19.62231578947368 -2.7768759004541623
      vertex 45.11167962371783 29.991157894736844 -2.7768759004541623
    endloop
  endfacet
  facet normal 0.058925 0.000000 0.998262
    outer loop
      vertex 30.741037926505626 29.063529411764705 -1.9286086151750053
      vertex 30.741037926505626 18.527058823529412 -1.9286086151750053
      vertex 45.11167962371783 19.62231578947368 -2.7768759004541623
    endloop
  endfacet
  facet normal 0.058925 0.000000 0.998262
    outer loop
      vertex 30.858962073494375 18.527058823529412 0.5686086151750049
      vertex 30.858962073494375 7.9905882352941155 0.5686086151750049
      vertex 45.28832037628217 9.253473684210528 -0.28312409954583884
    endloop
  endfacet
  facet normal 0.058925 0.000000 0.998262
    outer loop
      vertex 30.858962073494375 18.527058823529412 0.5686086151750049
      vertex 45.28832037628217 9.253473684210528 -0.28312409954583884
      vertex 45.28832037628217 19.62231578947368 -0.28312409954583884
    endloop
  endfacet
  facet normal 0.058925 0.000000 0.998262
    outer loop
      vertex 30.741037926505626 18.527058823529412 -1.9286086151750053
      vertex 45.11167962371783 9.253473684210528 -2.7768759004541623
      vertex 45.11167962371783 19.62231578947368 -2.7768759004541623
    endloop
  endfacet
  facet normal 0.058925 0.000000 0.998262
    outer loop
      vertex 30.741037926505626 18.527058823529412 -1.9286086151750053
      vertex 30.741037926505626 7.9905882352941155 -1.9286086151750053
      vertex 45.11167962371783 9.253473684210528 -2.7768759004541623
    endloop
  endfacet
  facet normal 0.058925 0.000000 0.998262
    outer loop
      vertex 30.858962073494375 7.9905882352941155 0.5686086151750049
      vertex 30.858962073494375 -2.5458823529411774 0.5686086151750049
      vertex 45.28832037628217 -1.1153684210526347 -0.28312409954583884
    endloop
  endfacet
  facet normal 0.058925 0.000000 0.998262
    outer loop
      vertex 30.858962073494375 7.9905882352941155 0.5686086151750049
      vertex 45.28832037628217 -1.1153684210526347 -0.28312409954583884
      vertex 45.28832037628217 9.253473684210528 -0.28312409954583884
    endloop
  endfacet
  facet normal 0.058925 0.000000 0.998262
    outer loop
      vertex 30.741037926505626 7.9905882352941155 -1.9286086151750053
      vertex 45.11167962371783 -1.1153684210526347 -2.7768759004541623
      vertex 45.11167962371783 9.253473684210528 -2.7768759004541623
    endloop
  endfacet
  facet normal 0.058925 0.000000 0.998262
    outer loop
      vertex 30.741037926505626 7.9905882352941155 -1.9286086151750053
      vertex 30.741037926505626 -2.5458823529411774 -1.9286086151750053
      vertex 45.11167962371783 -1.1153684210526347 -2.7768759004541623
    endloop
  endfacet
  facet normal 0.058925 0.000000 0.998262
    outer loop
      vertex 30.858962073494375 -2.5458823529411774 0.5686086151750049
      vertex 30.858962073494375 -13.082352941176474 0.5686086151750049
      vertex 45.28832037628217 -11.48421052631579 -0.28312409954583884
    endloop
  endfacet
  facet normal 0.058925 0.000000 0.998262
    outer loop
      vertex 30.858962073494375 -2.5458823529411774 0.5686086151750049
      vertex 45.28832037628217 -11.48421052631579 -0.28312409954583884
      vertex 45.28832037628217 -1.1153684210526347 -0.28312409954583884
    endloop
  endfacet
  facet normal 0.058925 0.000000 0.998262
    outer loop
      vertex 30.741037926505626 -2.5458823529411774 -1.9286086151750053
      vertex 45.11167962371783 -11.48421052631579 -2.7768759004541623
      vertex 45.11167962371783 -1.1153684210526347 -2.7768759004541623
    endloop
  endfacet
  facet normal 0.058925 0.000000 0.998262
    outer loop
      vertex 30.741037926505626 -2.5458823529411774 -1.9286086151750053
      vertex 30.741037926505626 -13.082352941176474 -1.9286086151750053
      vertex 45.11167962371783 -11.48421052631579 -2.7768759004541623
    endloop
  endfacet
  facet normal 0.082358 0.000000 0.996603
    outer loop
      vertex 45.28832037628217 40.36 -0.28312409954583884
      vertex 45.28832037628217 29.991157894736844 -0.28312409954583884
      vertex 59.71753253864955 30.53557894736842 -1.475537826063568
    endloop
  endfacet
  facet normal 0.082358 0.000000 0.996603
    outer loop
      vertex 45.28832037628217 40.36 -0.28312409954583884
      vertex 59.71753253864955 30.53557894736842 -1.475537826063568
      vertex 59.71753253864955 40.480000000000004 -1.475537826063568
    endloop
  endfacet
  facet normal 0.082358 0.000000 0.996603
    outer loop
      vertex 45.11167962371783 40.36 -2.7768759004541623
      vertex 59.48246746135045 30.53557894736842 -3.9644621739364334
      vertex 59.48246746135045 40.480000000000004 -3.9644621739364334
    endloop
  endfacet
  facet normal 0.082358 0.000000 0.996603
    outer loop
      vertex 45.11167962371783 40.36 -2.7768759004541623
      vertex 45.11167962371783 29.991157894736844 -2.7768759004541623
      vertex 59.48246746135045 30.53557894736842 -3.9644621739364334
    endloop
  endfacet
  facet normal 0.082358 0.000000 0.996603
    outer loop
      vertex 45.28832037628217 29.991157894736844 -0.28312409954583884
      vertex 45.28832037628217 19.62231578947368 -0.28312409954583884
      vertex 59.71753253864955 20.591157894736842 -1.475537826063568
    endloop
  endfacet
  facet normal 0.082358 0.000000 0.996603
    outer loop
      vertex 45.28832037628217 29.991157894736844 -0.28312409954583884
      vertex 59.71753253864955 20.591157894736842 -1.475537826063568
      vertex 59.71753253864955 30.53557894736842 -1.475537826063568
    endloop
  endfacet
  facet normal 0.082358 0.000000 0.996603
    outer loop
      vertex 45.11167962371783 29.991157894736844 -2.7768759004541623
      vertex 59.48246746135045 20.591157894736842 -3.9644621739364334
      vertex 59.48246746135045 30.53557894736842 -3.9644621739364334
    endloop
  endfacet
  facet normal 0.082358 0.000000 0.996603
    outer loop
      vertex 45.11167962371783 29.991157894736844 -2.7768759004541623
      vertex 45.11167962371783 19.62231578947368 -2.7768759004541623
      vertex 59.48246746135045 20.591157894736842 -3.9644621739364334
    endloop
  endfacet
  facet normal 0.082358 0.000000 0.996603
    outer loop
      vertex 45.28832037628217 19.62231578947368 -0.28312409954583884
      vertex 45.28832037628217 9.253473684210528 -0.28312409954583884
      vertex 59.71753253864955 10.646736842105263 -1.475537826063568
    endloop
  endfacet
  facet normal 0.082358 0.000000 0.996603
    outer loop
      vertex 45.28832037628217 19.62231578947368 -0.28312409954583884
      vertex 59.71753253864955 10.646736842105263 -1.475537826063568
      vertex 59.71753253864955 20.591157894736842 -1.475537826063568
    endloop
  endfacet
  facet normal 0.082358 0.000000 0.996603
    outer loop
      vertex 45.11167962371783 19.62231578947368 -2.7768759004541623
      vertex 59.48246746135045 10.646736842105263 -3.9644621739364334
      vertex 59.48246746135045 20.591157894736842 -3.9644621739364334
    endloop
  endfacet
  facet normal 0.082358 0.000000 0.996603
    outer loop
      vertex 45.11167962371783 19.62231578947368 -2.7768759004541623
      vertex 45.11167962371783 9.253473684210528 -2.7768759004541623
      vertex 59.48246746135045 10.646736842105263 -3.9644621739364334
    endloop
  endfacet
  facet normal 0.082358 0.000000 0.996603
    outer loop
      vertex 45.28832037628217 9.253473684210528 -0.28312409954583884
      vertex 45.28832037628217 -1.1153684210526347 -0.28312409954583884
      vertex 59.71753253864955 0.7023157894736833 -1.475537826063568
    endloop
  endfacet
  facet normal 0.082358 0.000000 0.996603
    outer loop
      vertex 45.28832037628217 9.253473684210528 -0.28312409954583884
      vertex 59.71753253864955 0.7023157894736833 -1.475537826063568
      vertex 59.71753253864955 10.646736842105263 -1.475537826063568
    endloop
  endfacet
  facet normal 0.082358 0.000000 0.996603
    outer loop
      vertex 45.11167962371783 9.253473684210528 -2.7768759004541623
      vertex 59.48246746135045 0.7023157894736833 -3.9644621739364334
      vertex 59.48246746135045 10.646736842105263 -3.9644621739364334
    endloop
  endfacet
  facet normal 0.082358 0.000000 0.996603
    outer loop
      vertex 45.11167962371783 9.253473684210528 -2.7768759004541623
      vertex 45.11167962371783 -1.1153684210526347 -2.7768759004541623
      vertex 59.48246746135045 0.7023157894736833 -3.9644621739364334
    endloop
  endfacet
  facet normal 0.082358 0.000000 0.996603
    outer loop
      vertex 45.28832037628217 -1.1153684210526347 -0.28312409954583884
      vertex 45.28832037628217 -11.48421052631579 -0.28312409954583884
      vertex 59.71753253864955 -9.2421052631579 -1.475537826063568
    endloop
  endfacet
  facet normal 0.082358 0.000000 0.996603
    outer loop
      vertex 45.28832037628217 -1.1153684210526347 -0.28312409954583884
      vertex 59.71753253864955 -9.2421052631579 -1.475537826063568
      vertex 59.71753253864955 0.7023157894736833 -1.475537826063568
    endloop
  endfacet
  facet normal 0.082358 0.000000 0.996603
    outer loop
      vertex 45.11167962371783 -1.1153684210526347 -2.7768759004541623
      vertex 59.48246746135045 -9.2421052631579 -3.9644621739364334
      vertex 59.48246746135045 0.7023157894736833 -3.9644621739364334
    endloop
  endfacet
  facet normal 0.082358 0.000000 0.996603
    outer loop
      vertex 45.11167962371783 -1.1153684210526347 -2.7768759004541623
      vertex 45.11167962371783 -11.48421052631579 -2.7768759004541623
      vertex 59.48246746135045 -9.2421052631579 -3.9644621739364334
    endloop
  endfacet
  facet normal 0.105655 0.000000 0.994403
    outer loop
      vertex 59.71753253864955 40.480000000000004 -1.475537826063568
      vertex 59.71753253864955 30.53557894736842 -1.475537826063568
      vertex 74.14655172413794 40.09090909090909 -3.0086206896551726
    endloop
  endfacet
  facet normal 0.105655 0.000000 0.994403
    outer loop
      vertex 59.71753253864955 30.53557894736842 -1.475537826063568
      vertex 74.14655172413794 30.672727272727272 -3.0086206896551726
      vertex 74.14655172413794 40.09090909090909 -3.0086206896551726
    endloop
  endfacet
  facet normal 0.105655 0.000000 0.994403
    outer loop
      vertex 59.48246746135045 40.480000000000004 -3.9644621739364334
      vertex 59.48246746135045 30.53557894736842 -3.9644621739364334
      vertex 73.85344827586206 40.09090909090909 -5.491379310344827
    endloop
  endfacet
  facet normal 0.105655 0.000000 0.994403
    outer loop
      vertex 73.85344827586206 40.09090909090909 -5.491379310344827
      vertex 59.48246746135045 30.53557894736842 -3.9644621739364334
      vertex 73.85344827586206 30.672727272727272 -5.491379310344827
    endloop
  endfacet
  facet normal 0.105655 0.000000 0.994403
    outer loop
      vertex 59.71753253864955 30.53557894736842 -1.475537826063568
      vertex 59.71753253864955 20.591157894736842 -1.475537826063568
      vertex 74.14655172413794 21.254545454545454 -3.0086206896551726
    endloop
  endfacet
  facet normal 0.105655 0.000000 0.994403
    outer loop
      vertex 59.71753253864955 30.53557894736842 -1.475537826063568
      vertex 74.14655172413794 21.254545454545454 -3.0086206896551726
      vertex 74.14655172413794 30.672727272727272 -3.0086206896551726
    endloop
  endfacet
  facet normal 0.105655 0.000000 0.994403
    outer loop
      vertex 59.48246746135045 30.53557894736842 -3.9644621739364334
      vertex 73.85344827586206 21.254545454545454 -5.491379310344827
      vertex 73.85344827586206 30.672727272727272 -5.491379310344827
    endloop
  endfacet
  facet normal 0.105655 0.000000 0.994403
    outer loop
      vertex 59.48246746135045 30.53557894736842 -3.9644621739364334
      vertex 59.48246746135045 20.591157894736842 -3.9644621739364334
      vertex 73.85344827586206 21.254545454545454 -5.491379310344827
    endloop
  endfacet
  facet normal 0.105655 0.000000 0.994403
    outer loop
      vertex 59.71753253864955 20.591157894736842 -1.475537826063568
      vertex 59.71753253864955 10.646736842105263 -1.475537826063568
      vertex 74.14655172413794 11.836363636363632 -3.0086206896551726
    endloop
  endfacet
  facet normal 0.105655 0.000000 0.994403
    outer loop
      vertex 59.71753253864955 20.591157894736842 -1.475537826063568
      vertex 74.14655172413794 11.836363636363632 -3.0086206896551726
      vertex 74.14655172413794 21.254545454545454 -3.0086206896551726
    endloop
  endfacet
  facet normal 0.105655 0.000000 0.994403
    outer loop
      vertex 59.48246746135045 20.591157894736842 -3.9644621739364334
      vertex 73.85344827586206 11.836363636363632 -5.491379310344827
      vertex 73.85344827586206 21.254545454545454 -5.491379310344827
    endloop
  endfacet
  facet normal 0.105655 0.000000 0.994403
    outer loop
      vertex 59.48246746135045 20.591157894736842 -3.9644621739364334
      vertex 59.48246746135045 10.646736842105263 -3.9644621739364334
      vertex 73.85344827586206 11.836363636363632 -5.491379310344827
    endloop
  endfacet
  facet normal 0.105655 0.000000 0.994403
    outer loop
      vertex 59.71753253864955 10.646736842105263 -1.475537826063568
      vertex 59.71753253864955 0.7023157894736833 -1.475537826063568
      vertex 74.14655172413794 2.418181818181818 -3.0086206896551726
    endloop
  endfacet
  facet normal 0.105655 0.000000 0.994403
    outer loop
      vertex 59.71753253864955 10.646736842105263 -1.475537826063568
      vertex 74.14655172413794 2.418181818181818 -3.0086206896551726
      vertex 74.14655172413794 11.836363636363632 -3.0086206896551726
    endloop
  endfacet
  facet normal 0.105655 0.000000 0.994403
    outer loop
      vertex 59.48246746135045 10.646736842105263 -3.9644621739364334
      vertex 73.85344827586206 2.418181818181818 -5.491379310344827
      vertex 73.85344827586206 11.836363636363632 -5.491379310344827
    endloop
  endfacet
  facet normal 0.105655 0.000000 0.994403
    outer loop
      vertex 59.48246746135045 10.646736842105263 -3.9644621739364334
      vertex 59.48246746135045 0.7023157894736833 -3.9644621739364334
      vertex 73.85344827586206 2.418181818181818 -5.491379310344827
    endloop
  endfacet
  facet normal 0.105655 0.000000 0.994403
    outer loop
      vertex 59.71753253864955 0.7023157894736833 -1.475537826063568
      vertex 59.71753253864955 -9.2421052631579 -1.475537826063568
      vertex 74.14655172413794 -7.0000000000000036 -3.0086206896551726
    endloop
  endfacet
  facet normal 0.105655 0.000000 0.994403
    outer loop
      vertex 59.71753253864955 0.7023157894736833 -1.475537826063568
      vertex 74.14655172413794 -7.0000000000000036 -3.0086206896551726
      vertex 74.14655172413794 2.418181818181818 -3.0086206896551726
    endloop
  endfacet
  facet normal 0.105655 0.000000 0.994403
    outer loop
      vertex 59.48246746135045 0.7023157894736833 -3.9644621739364334
      vertex 73.85344827586206 -7.0000000000000036 -5.491379310344827
      vertex 73.85344827586206 2.418181818181818 -5.491379310344827
    endloop
  endfacet
  facet normal 0.105655 0.000000 0.994403
    outer loop
      vertex 59.48246746135045 0.7023157894736833 -3.9644621739364334
      vertex 59.48246746135045 -9.2421052631579 -3.9644621739364334
      vertex 73.85344827586206 -7.0000000000000036 -5.491379310344827
    endloop
  endfacet
  facet normal 0.128780 0.000000 0.991673
    outer loop
      vertex 74.14655172413794 40.09090909090909 -3.0086206896551726
      vertex 74.14655172413794 30.672727272727272 -3.0086206896551726
      vertex 88.57533265893552 39.6 -4.882357701631609
    endloop
  endfacet
  facet normal 0.128780 0.000000 0.991673
    outer loop
      vertex 74.14655172413794 30.672727272727272 -3.0086206896551726
      vertex 88.57533265893552 31.134117647058826 -4.882357701631609
      vertex 88.57533265893552 39.6 -4.882357701631609
    endloop
  endfacet
  facet normal 0.128780 0.000000 0.991673
    outer loop
      vertex 73.85344827586206 40.09090909090909 -5.491379310344827
      vertex 73.85344827586206 30.672727272727272 -5.491379310344827
      vertex 88.22466734106449 39.6 -7.357642298368395
    endloop
  endfacet
  facet normal 0.128780 0.000000 0.991673
    outer loop
      vertex 88.22466734106449 39.6 -7.357642298368395
      vertex 73.85344827586206 30.672727272727272 -5.491379310344827
      vertex 88.22466734106449 31.134117647058826 -7.357642298368395
    endloop
  endfacet
  facet normal 0.128780 0.000000 0.991673
    outer loop
      vertex 74.14655172413794 30.672727272727272 -3.0086206896551726
      vertex 74.14655172413794 21.254545454545454 -3.0086206896551726
      vertex 88.57533265893552 22.66823529411765 -4.882357701631609
    endloop
  endfacet
  facet normal 0.128780 0.000000 0.991673
    outer loop
      vertex 74.14655172413794 30.672727272727272 -3.0086206896551726
      vertex 88.57533265893552 22.66823529411765 -4.882357701631609
      vertex 88.57533265893552 31.134117647058826 -4.882357701631609
    endloop
  endfacet
  facet normal 0.128780 0.000000 0.991673
    outer loop
      vertex 73.85344827586206 30.672727272727272 -5.491379310344827
      vertex 88.22466734106449 22.66823529411765 -7.357642298368395
      vertex 88.22466734106449 31.134117647058826 -7.357642298368395
    endloop
  endfacet
  facet normal 0.128780 0.000000 0.991673
    outer loop
      vertex 73.85344827586206 30.672727272727272 -5.491379310344827
      vertex 73.85344827586206 21.254545454545454 -5.491379310344827
      vertex 88.22466734106449 22.66823529411765 -7.357642298368395
    endloop
  endfacet
  facet normal 0.128780 0.000000 0.991673
    outer loop
      vertex 74.14655172413794 21.254545454545454 -3.0086206896551726
      vertex 74.14655172413794 11.836363636363632 -3.0086206896551726
      vertex 88.57533265893552 14.202352941176471 -4.882357701631609
    endloop
  endfacet
  facet normal 0.128780 0.000000 0.991673
    outer loop
      vertex 74.14655172413794 21.254545454545454 -3.0086206896551726
      vertex 88.57533265893552 14.202352941176471 -4.882357701631609
      vertex 88.57533265893552 22.66823529411765 -4.882357701631609
    endloop
  endfacet
  facet normal 0.128780 0.000000 0.991673
    outer loop
      vertex 73.85344827586206 21.254545454545454 -5.491379310344827
      vertex 88.22466734106449 14.202352941176471 -7.357642298368395
      vertex 88.22466734106449 22.66823529411765 -7.357642298368395
    endloop
  endfacet
  facet normal 0.128780 0.000000 0.991673
    outer loop
      vertex 73.85344827586206 21.254545454545454 -5.491379310344827
      vertex 73.85344827586206 11.836363636363632 -5.491379310344827
      vertex 88.22466734106449 14.202352941176471 -7.357642298368395
    endloop
  endfacet
  facet normal 0.128780 0.000000 0.991673
    outer loop
      vertex 74.14655172413794 11.836363636363632 -3.0086206896551726
      vertex 74.14655172413794 2.418181818181818 -3.0086206896551726
      vertex 88.57533265893552 5.736470588235299 -4.882357701631609
    endloop
  endfacet
  facet normal 0.128780 0.000000 0.991673
    outer loop
      vertex 74.14655172413794 11.836363636363632 -3.0086206896551726
      vertex 88.57533265893552 5.736470588235299 -4.882357701631609
      vertex 88.57533265893552 14.202352941176471 -4.882357701631609
    endloop
  endfacet
  facet normal 0.128780 0.000000 0.991673
    outer loop
      vertex 73.85344827586206 11.836363636363632 -5.491379310344827
      vertex 88.22466734106449 5.736470588235299 -7.357642298368395
      vertex 88.22466734106449 14.202352941176471 -7.357642298368395
    endloop
  endfacet
  facet normal 0.128780 0.000000 0.991673
    outer loop
      vertex 73.85344827586206 11.836363636363632 -5.491379310344827
      vertex 73.85344827586206 2.418181818181818 -5.491379310344827
      vertex 88.22466734106449 5.736470588235299 -7.357642298368395
    endloop
  endfacet
  facet normal 0.128780 0.000000 0.991673
    outer loop
      vertex 74.14655172413794 2.418181818181818 -3.0086206896551726
      vertex 74.14655172413794 -7.0000000000000036 -3.0086206896551726
      vertex 88.57533265893552 -2.7294117647058798 -4.882357701631609
    endloop
  endfacet
  facet normal 0.128780 0.000000 0.991673
    outer loop
      vertex 74.14655172413794 2.418181818181818 -3.0086206896551726
      vertex 88.57533265893552 -2.7294117647058798 -4.882357701631609
      vertex 88.57533265893552 5.736470588235299 -4.882357701631609
    endloop
  endfacet
  facet normal 0.128780 0.000000 0.991673
    outer loop
      vertex 73.85344827586206 2.418181818181818 -5.491379310344827
      vertex 88.22466734106449 -2.7294117647058798 -7.357642298368395
      vertex 88.22466734106449 5.736470588235299 -7.357642298368395
    endloop
  endfacet
  facet normal 0.128780 0.000000 0.991673
    outer loop
      vertex 73.85344827586206 2.418181818181818 -5.491379310344827
      vertex 73.85344827586206 -7.0000000000000036 -5.491379310344827
      vertex 88.22466734106449 -2.7294117647058798 -7.357642298368395
    endloop
  endfacet
  facet normal 0.151696 0.000000 0.988427
    outer loop
      vertex 88.57533265893552 39.6 -4.882357701631609
      vertex 88.57533265893552 31.134117647058826 -4.882357701631609
      vertex 103.00383196662543 39.10909090909091 -7.096730958232708
    endloop
  endfacet
  facet normal 0.151696 0.000000 0.988427
    outer loop
      vertex 88.57533265893552 31.134117647058826 -4.882357701631609
      vertex 103.00383196662543 31.595508021390373 -7.096730958232708
      vertex 103.00383196662543 39.10909090909091 -7.096730958232708
    endloop
  endfacet
  facet normal 0.151696 0.000000 0.988427
    outer loop
      vertex 88.22466734106449 39.6 -7.357642298368395
      vertex 88.22466734106449 31.134117647058826 -7.357642298368395
      vertex 102.59616803337457 39.10909090909091 -9.563269041767288
    endloop
  endfacet
  facet normal 0.151696 0.000000 0.988427
    outer loop
      vertex 102.59616803337457 39.10909090909091 -9.563269041767288
      vertex 88.22466734106449 31.134117647058826 -7.357642298368395
      vertex 102.59616803337457 31.595508021390373 -9.563269041767288
    endloop
  endfacet
  facet normal 0.151696 0.000000 0.988427
    outer loop
      vertex 88.57533265893552 31.134117647058826 -4.882357701631609
      vertex 88.57533265893552 22.66823529411765 -4.882357701631609
      vertex 103.00383196662543 24.08192513368984 -7.096730958232708
    endloop
  endfacet
  facet normal 0.151696 0.000000 0.988427
    outer loop
      vertex 88.57533265893552 31.134117647058826 -4.882357701631609
      vertex 103.00383196662543 24.08192513368984 -7.096730958232708
      vertex 103.00383196662543 31.595508021390373 -7.096730958232708
    endloop
  endfacet
  facet normal 0.151696 0.000000 0.988427
    outer loop
      vertex 88.22466734106449 31.134117647058826 -7.357642298368395
      vertex 102.59616803337457 24.08192513368984 -9.563269041767288
      vertex 102.59616803337457 31.595508021390373 -9.563269041767288
    endloop
  endfacet
  facet normal 0.151696 0.000000 0.988427
    outer loop
      vertex 88.22466734106449 31.134117647058826 -7.357642298368395
      vertex 88.22466734106449 22.66823529411765 -7.357642298368395
      vertex 102.59616803337457 24.08192513368984 -9.563269041767288
    endloop
  endfacet
  facet normal 0.151696 0.000000 0.988427
    outer loop
      vertex 88.57533265893552 22.66823529411765 -4.882357701631609
      vertex 88.57533265893552 14.202352941176471 -4.882357701631609
      vertex 103.00383196662543 16.568342245989303 -7.096730958232708
    endloop
  endfacet
  facet normal 0.151696 0.000000 0.988427
    outer loop
      vertex 88.57533265893552 22.66823529411765 -4.882357701631609
      vertex 103.00383196662543 16.568342245989303 -7.096730958232708
      vertex 103.00383196662543 24.08192513368984 -7.096730958232708
    endloop
  endfacet
  facet normal 0.151696 0.000000 0.988427
    outer loop
      vertex 88.22466734106449 22.66823529411765 -7.357642298368395
      vertex 102.59616803337457 16.568342245989303 -9.563269041767288
      vertex 102.59616803337457 24.08192513368984 -9.563269041767288
    endloop
  endfacet
  facet normal 0.151696 0.000000 0.988427
    outer loop
      vertex 88.22466734106449 22.66823529411765 -7.357642298368395
      vertex 88.22466734106449 14.202352941176471 -7.357642298368395
      vertex 102.59616803337457 16.568342245989303 -9.563269041767288
    endloop
  endfacet
  facet normal 0.151696 0.000000 0.988427
    outer loop
      vertex 88.57533265893552 14.202352941176471 -4.882357701631609
      vertex 88.57533265893552 5.736470588235299 -4.882357701631609
      vertex 103.00383196662543 9.05475935828877 -7.096730958232708
    endloop
  endfacet
  facet normal 0.151696 0.000000 0.988427
    outer loop
      vertex 88.57533265893552 14.202352941176471 -4.882357701631609
      vertex 103.00383196662543 9.05475935828877 -7.096730958232708
      vertex 103.00383196662543 16.568342245989303 -7.096730958232708
    endloop
  endfacet
  facet normal 0.151696 0.000000 0.988427
    outer loop
      vertex 88.22466734106449 14.202352941176471 -7.357642298368395
      vertex 102.59616803337457 9.05475935828877 -9.563269041767288
      vertex 102.59616803337457 16.568342245989303 -9.563269041767288
    endloop
  endfacet
  facet normal 0.151696 0.000000 0.988427
    outer loop
      vertex 88.22466734106449 14.202352941176471 -7.357642298368395
      vertex 88.22466734106449 5.736470588235299 -7.357642298368395
      vertex 102.59616803337457 9.05475935828877 -9.563269041767288
    endloop
  endfacet
  facet normal 0.151696 0.000000 0.988427
    outer loop
      vertex 88.57533265893552 5.736470588235299 -4.882357701631609
      vertex 88.57533265893552 -2.7294117647058798 -4.882357701631609
      vertex 103.00383196662543 1.5411764705882334 -7.096730958232708
    endloop
  endfacet
  facet normal 0.151696 0.000000 0.988427
    outer loop
      vertex 88.57533265893552 5.736470588235299 -4.882357701631609
      vertex 103.00383196662543 1.5411764705882334 -7.096730958232708
      vertex 103.00383196662543 9.05475935828877 -7.096730958232708
    endloop
  endfacet
  facet normal 0.151696 0.000000 0.988427
    outer loop
      vertex 88.22466734106449 5.736470588235299 -7.357642298368395
      vertex 102.59616803337457 1.5411764705882334 -9.563269041767288
      vertex 102.59616803337457 9.05475935828877 -9.563269041767288
    endloop
  endfacet
  facet normal 0.151696 0.000000 0.988427
    outer loop
      vertex 88.22466734106449 5.736470588235299 -7.357642298368395
      vertex 88.22466734106449 -2.7294117647058798 -7.357642298368395
      vertex 102.59616803337457 1.5411764705882334 -9.563269041767288
    endloop
  endfacet
  facet normal 0.174370 0.000000 0.984680
    outer loop
      vertex 103.00383196662543 39.10909090909091 -7.096730958232708
      vertex 103.00383196662543 31.595508021390373 -7.096730958232708
      vertex 117.43200846844759 32.43121212121212 -9.651719872924504
    endloop
  endfacet
  facet normal 0.174370 0.000000 0.984680
    outer loop
      vertex 103.00383196662543 39.10909090909091 -7.096730958232708
      vertex 117.43200846844759 32.43121212121212 -9.651719872924504
      vertex 117.43200846844759 38.61818181818182 -9.651719872924504
    endloop
  endfacet
  facet normal 0.174370 0.000000 0.984680
    outer loop
      vertex 102.59616803337457 39.10909090909091 -9.563269041767288
      vertex 116.96799153155241 32.43121212121212 -12.108280127075501
      vertex 116.96799153155241 38.61818181818182 -12.108280127075501
    endloop
  endfacet
  facet normal 0.174370 0.000000 0.984680
    outer loop
      vertex 102.59616803337457 39.10909090909091 -9.563269041767288
      vertex 102.59616803337457 31.595508021390373 -9.563269041767288
      vertex 116.96799153155241 32.43121212121212 -12.108280127075501
    endloop
  endfacet
  facet normal 0.174370 0.000000 0.984680
    outer loop
      vertex 103.00383196662543 31.595508021390373 -7.096730958232708
      vertex 103.00383196662543 24.08192513368984 -7.096730958232708
      vertex 117.43200846844759 26.244242424242422 -9.651719872924504
    endloop
  endfacet
  facet normal 0.174370 0.000000 0.984680
    outer loop
      vertex 103.00383196662543 31.595508021390373 -7.096730958232708
      vertex 117.43200846844759 26.244242424242422 -9.651719872924504
      vertex 117.43200846844759 32.43121212121212 -9.651719872924504
    endloop
  endfacet
  facet normal 0.174370 0.000000 0.984680
    outer loop
      vertex 102.59616803337457 31.595508021390373 -9.563269041767288
      vertex 116.96799153155241 26.244242424242422 -12.108280127075501
      vertex 116.96799153155241 32.43121212121212 -12.108280127075501
    endloop
  endfacet
  facet normal 0.174370 0.000000 0.984680
    outer loop
      vertex 102.59616803337457 31.595508021390373 -9.563269041767288
      vertex 102.59616803337457 24.08192513368984 -9.563269041767288
      vertex 116.96799153155241 26.244242424242422 -12.108280127075501
    endloop
  endfacet
  facet normal 0.174370 0.000000 0.984680
    outer loop
      vertex 103.00383196662543 24.08192513368984 -7.096730958232708
      vertex 103.00383196662543 16.568342245989303 -7.096730958232708
      vertex 117.43200846844759 20.05727272727273 -9.651719872924504
    endloop
  endfacet
  facet normal 0.174370 0.000000 0.984680
    outer loop
      vertex 103.00383196662543 24.08192513368984 -7.096730958232708
      vertex 117.43200846844759 20.05727272727273 -9.651719872924504
      vertex 117.43200846844759 26.244242424242422 -9.651719872924504
    endloop
  endfacet
  facet normal 0.174370 0.000000 0.984680
    outer loop
      vertex 102.59616803337457 24.08192513368984 -9.563269041767288
      vertex 116.96799153155241 20.05727272727273 -12.108280127075501
      vertex 116.96799153155241 26.244242424242422 -12.108280127075501
    endloop
  endfacet
  facet normal 0.174370 0.000000 0.984680
    outer loop
      vertex 102.59616803337457 24.08192513368984 -9.563269041767288
      vertex 102.59616803337457 16.568342245989303 -9.563269041767288
      vertex 116.96799153155241 20.05727272727273 -12.108280127075501
    endloop
  endfacet
  facet normal 0.174370 0.000000 0.984680
    outer loop
      vertex 103.00383196662543 16.568342245989303 -7.096730958232708
      vertex 103.00383196662543 9.05475935828877 -7.096730958232708
      vertex 117.43200846844759 13.870303030303031 -9.651719872924504
    endloop
  endfacet
  facet normal 0.174370 0.000000 0.984680
    outer loop
      vertex 103.00383196662543 16.568342245989303 -7.096730958232708
      vertex 117.43200846844759 13.870303030303031 -9.651719872924504
      vertex 117.43200846844759 20.05727272727273 -9.651719872924504
    endloop
  endfacet
  facet normal 0.174370 0.000000 0.984680
    outer loop
      vertex 102.59616803337457 16.568342245989303 -9.563269041767288
      vertex 116.96799153155241 13.870303030303031 -12.108280127075501
      vertex 116.96799153155241 20.05727272727273 -12.108280127075501
    endloop
  endfacet
  facet normal 0.174370 0.000000 0.984680
    outer loop
      vertex 102.59616803337457 16.568342245989303 -9.563269041767288
      vertex 102.59616803337457 9.05475935828877 -9.563269041767288
      vertex 116.96799153155241 13.870303030303031 -12.108280127075501
    endloop
  endfacet
  facet normal 0.174370 0.000000 0.984680
    outer loop
      vertex 103.00383196662543 9.05475935828877 -7.096730958232708
      vertex 103.00383196662543 1.5411764705882334 -7.096730958232708
      vertex 117.43200846844759 7.683333333333337 -9.651719872924504
    endloop
  endfacet
  facet normal 0.174370 0.000000 0.984680
    outer loop
      vertex 103.00383196662543 9.05475935828877 -7.096730958232708
      vertex 117.43200846844759 7.683333333333337 -9.651719872924504
      vertex 117.43200846844759 13.870303030303031 -9.651719872924504
    endloop
  endfacet
  facet normal 0.174370 0.000000 0.984680
    outer loop
      vertex 102.59616803337457 9.05475935828877 -9.563269041767288
      vertex 116.96799153155241 7.683333333333337 -12.108280127075501
      vertex 116.96799153155241 13.870303030303031 -12.108280127075501
    endloop
  endfacet
  facet normal 0.174370 0.000000 0.984680
    outer loop
      vertex 102.59616803337457 9.05475935828877 -9.563269041767288
      vertex 102.59616803337457 1.5411764705882334 -9.563269041767288
      vertex 116.96799153155241 7.683333333333337 -12.108280127075501
    endloop
  endfacet
  facet normal 0.196771 0.000000 0.980450
    outer loop
      vertex 117.43200846844759 38.61818181818182 -9.651719872924504
      vertex 117.43200846844759 32.43121212121212 -9.651719872924504
      vertex 131.85982344477506 36.2 -12.547301436352676
    endloop
  endfacet
  facet normal 0.196771 0.000000 0.980450
    outer loop
      vertex 117.43200846844759 32.43121212121212 -9.651719872924504
      vertex 131.85982344477506 31.936666666666667 -12.547301436352676
      vertex 131.85982344477506 36.2 -12.547301436352676
    endloop
  endfacet
  facet normal 0.196771 0.000000 0.980450
    outer loop
      vertex 116.96799153155241 38.61818181818182 -12.108280127075501
      vertex 116.96799153155241 32.43121212121212 -12.108280127075501
      vertex 131.34017655522493 36.2 -14.99269856364732
    endloop
  endfacet
  facet normal 0.196771 0.000000 0.980450
    outer loop
      vertex 131.34017655522493 36.2 -14.99269856364732
      vertex 116.96799153155241 32.43121212121212 -12.108280127075501
      vertex 131.34017655522493 31.936666666666667 -14.99269856364732
    endloop
  endfacet
  facet normal 0.196771 0.000000 0.980450
    outer loop
      vertex 117.43200846844759 32.43121212121212 -9.651719872924504
      vertex 117.43200846844759 26.244242424242422 -9.651719872924504
      vertex 131.85982344477506 27.673333333333332 -12.547301436352676
    endloop
  endfacet
  facet normal 0.196771 0.000000 0.980450
    outer loop
      vertex 117.43200846844759 32.43121212121212 -9.651719872924504
      vertex 131.85982344477506 27.673333333333332 -12.547301436352676
      vertex 131.85982344477506 31.936666666666667 -12.547301436352676
    endloop
  endfacet
  facet normal 0.196771 0.000000 0.980450
    outer loop
      vertex 116.96799153155241 32.43121212121212 -12.108280127075501
      vertex 131.34017655522493 27.673333333333332 -14.99269856364732
      vertex 131.34017655522493 31.936666666666667 -14.99269856364732
    endloop
  endfacet
  facet normal 0.196771 0.000000 0.980450
    outer loop
      vertex 116.96799153155241 32.43121212121212 -12.108280127075501
      vertex 116.96799153155241 26.244242424242422 -12.108280127075501
      vertex 131.34017655522493 27.673333333333332 -14.99269856364732
    endloop
  endfacet
  facet normal 0.196771 0.000000 0.980450
    outer loop
      vertex 117.43200846844759 26.244242424242422 -9.651719872924504
      vertex 117.43200846844759 20.05727272727273 -9.651719872924504
      vertex 131.85982344477506 23.409999999999997 -12.547301436352676
    endloop
  endfacet
  facet normal 0.196771 0.000000 0.980450
    outer loop
      vertex 117.43200846844759 26.244242424242422 -9.651719872924504
      vertex 131.85982344477506 23.409999999999997 -12.547301436352676
      vertex 131.85982344477506 27.673333333333332 -12.547301436352676
    endloop
  endfacet
  facet normal 0.196771 0.000000 0.980450
    outer loop
      vertex 116.96799153155241 26.244242424242422 -12.108280127075501
      vertex 131.34017655522493 23.409999999999997 -14.99269856364732
      vertex 131.34017655522493 27.673333333333332 -14.99269856364732
    endloop
  endfacet
  facet normal 0.196771 0.000000 0.980450
    outer loop
      vertex 116.96799153155241 26.244242424242422 -12.108280127075501
      vertex 116.96799153155241 20.05727272727273 -12.108280127075501
      vertex 131.34017655522493 23.409999999999997 -14.99269856364732
    endloop
  endfacet
  facet normal 0.196771 0.000000 0.980450
    outer loop
      vertex 117.43200846844759 20.05727272727273 -9.651719872924504
      vertex 117.43200846844759 13.870303030303031 -9.651719872924504
      vertex 131.85982344477506 19.14666666666666 -12.547301436352676
    endloop
  endfacet
  facet normal 0.196771 0.000000 0.980450
    outer loop
      vertex 117.43200846844759 20.05727272727273 -9.651719872924504
      vertex 131.85982344477506 19.14666666666666 -12.547301436352676
      vertex 131.85982344477506 23.409999999999997 -12.547301436352676
    endloop
  endfacet
  facet normal 0.196771 0.000000 0.980450
    outer loop
      vertex 116.96799153155241 20.05727272727273 -12.108280127075501
      vertex 131.34017655522493 19.14666666666666 -14.99269856364732
      vertex 131.34017655522493 23.409999999999997 -14.99269856364732
    endloop
  endfacet
  facet normal 0.196771 0.000000 0.980450
    outer loop
      vertex 116.96799153155241 20.05727272727273 -12.108280127075501
      vertex 116.96799153155241 13.870303030303031 -12.108280127075501
      vertex 131.34017655522493 19.14666666666666 -14.99269856364732
    endloop
  endfacet
  facet normal 0.196771 0.000000 0.980450
    outer loop
      vertex 117.43200846844759 13.870303030303031 -9.651719872924504
      vertex 117.43200846844759 7.683333333333337 -9.651719872924504
      vertex 131.85982344477506 14.883333333333328 -12.547301436352676
    endloop
  endfacet
  facet normal 0.196771 0.000000 0.980450
    outer loop
      vertex 117.43200846844759 13.870303030303031 -9.651719872924504
      vertex 131.85982344477506 14.883333333333328 -12.547301436352676
      vertex 131.85982344477506 19.14666666666666 -12.547301436352676
    endloop
  endfacet
  facet normal 0.196771 0.000000 0.980450
    outer loop
      vertex 116.96799153155241 13.870303030303031 -12.108280127075501
      vertex 131.34017655522493 14.883333333333328 -14.99269856364732
      vertex 131.34017655522493 19.14666666666666 -14.99269856364732
    endloop
  endfacet
  facet normal 0.196771 0.000000 0.980450
    outer loop
      vertex 116.96799153155241 13.870303030303031 -12.108280127075501
      vertex 116.96799153155241 7.683333333333337 -12.108280127075501
      vertex 131.34017655522493 14.883333333333328 -14.99269856364732
    endloop
  endfacet
  facet normal 0.218867 0.000000 0.975755
    outer loop
      vertex 131.85982344477506 36.2 -12.547301436352676
      vertex 131.85982344477506 31.936666666666667 -12.547301436352676
      vertex 146.28724085469494 28.000000777777775 -15.78345049776258
    endloop
  endfacet
  facet normal 0.218867 0.000000 0.975755
    outer loop
      vertex 131.85982344477506 31.936666666666667 -12.547301436352676
      vertex 146.28724085469494 28.000000479365077 -15.78345049776258
      vertex 146.28724085469494 28.000000777777775 -15.78345049776258
    endloop
  endfacet
  facet normal 0.218867 0.000000 0.975755
    outer loop
      vertex 131.34017655522493 36.2 -14.99269856364732
      vertex 131.34017655522493 31.936666666666667 -14.99269856364732
      vertex 145.71275914530506 28.000000777777775 -18.21654950223742
    endloop
  endfacet
  facet normal 0.218867 0.000000 0.975755
    outer loop
      vertex 145.71275914530506 28.000000777777775 -18.21654950223742
      vertex 131.34017655522493 31.936666666666667 -14.99269856364732
      vertex 145.71275914530506 28.000000479365077 -18.21654950223742
    endloop
  endfacet
  facet normal 0.218867 0.000000 0.975755
    outer loop
      vertex 131.85982344477506 31.936666666666667 -12.547301436352676
      vertex 131.85982344477506 27.673333333333332 -12.547301436352676
      vertex 146.28724085469494 28.000000479365077 -15.78345049776258
    endloop
  endfacet
  facet normal 0.218867 0.000000 0.975755
    outer loop
      vertex 131.85982344477506 27.673333333333332 -12.547301436352676
      vertex 146.28724085469494 28.00000018095238 -15.78345049776258
      vertex 146.28724085469494 28.000000479365077 -15.78345049776258
    endloop
  endfacet
  facet normal 0.218867 0.000000 0.975755
    outer loop
      vertex 131.34017655522493 31.936666666666667 -14.99269856364732
      vertex 131.34017655522493 27.673333333333332 -14.99269856364732
      vertex 145.71275914530506 28.000000479365077 -18.21654950223742
    endloop
  endfacet
  facet normal 0.218867 0.000000 0.975755
    outer loop
      vertex 145.71275914530506 28.000000479365077 -18.21654950223742
      vertex 131.34017655522493 27.673333333333332 -14.99269856364732
      vertex 145.71275914530506 28.00000018095238 -18.21654950223742
    endloop
  endfacet
  facet normal 0.218867 0.000000 0.975755
    outer loop
      vertex 131.85982344477506 27.673333333333332 -12.547301436352676
      vertex 131.85982344477506 23.409999999999997 -12.547301436352676
      vertex 146.28724085469494 27.999999882539683 -15.78345049776258
    endloop
  endfacet
  facet normal 0.218867 0.000000 0.975755
    outer loop
      vertex 131.85982344477506 27.673333333333332 -12.547301436352676
      vertex 146.28724085469494 27.999999882539683 -15.78345049776258
      vertex 146.28724085469494 28.00000018095238 -15.78345049776258
    endloop
  endfacet
  facet normal 0.218867 0.000000 0.975755
    outer loop
      vertex 131.34017655522493 27.673333333333332 -14.99269856364732
      vertex 145.71275914530506 27.999999882539683 -18.21654950223742
      vertex 145.71275914530506 28.00000018095238 -18.21654950223742
    endloop
  endfacet
  facet normal 0.218867 0.000000 0.975755
    outer loop
      vertex 131.34017655522493 27.673333333333332 -14.99269856364732
      vertex 131.34017655522493 23.409999999999997 -14.99269856364732
      vertex 145.71275914530506 27.999999882539683 -18.21654950223742
    endloop
  endfacet
  facet normal 0.218867 0.000000 0.975755
    outer loop
      vertex 131.85982344477506 23.409999999999997 -12.547301436352676
      vertex 131.85982344477506 19.14666666666666 -12.547301436352676
      vertex 146.28724085469494 27.999999584126986 -15.78345049776258
    endloop
  endfacet
  facet normal 0.218867 0.000000 0.975755
    outer loop
      vertex 131.85982344477506 23.409999999999997 -12.547301436352676
      vertex 146.28724085469494 27.999999584126986 -15.78345049776258
      vertex 146.28724085469494 27.999999882539683 -15.78345049776258
    endloop
  endfacet
  facet normal 0.218867 0.000000 0.975755
    outer loop
      vertex 131.34017655522493 23.409999999999997 -14.99269856364732
      vertex 145.71275914530506 27.999999584126986 -18.21654950223742
      vertex 145.71275914530506 27.999999882539683 -18.21654950223742
    endloop
  endfacet
  facet normal 0.218867 0.000000 0.975755
    outer loop
      vertex 131.34017655522493 23.409999999999997 -14.99269856364732
      vertex 131.34017655522493 19.14666666666666 -14.99269856364732
      vertex 145.71275914530506 27.999999584126986 -18.21654950223742
    endloop
  endfacet
  facet normal 0.218867 0.000000 0.975755
    outer loop
      vertex 131.85982344477506 19.14666666666666 -12.547301436352676
      vertex 131.85982344477506 14.883333333333328 -12.547301436352676
      vertex 146.28724085469494 27.99999928571429 -15.78345049776258
    endloop
  endfacet
  facet normal 0.218867 0.000000 0.975755
    outer loop
      vertex 131.85982344477506 19.14666666666666 -12.547301436352676
      vertex 146.28724085469494 27.99999928571429 -15.78345049776258
      vertex 146.28724085469494 27.999999584126986 -15.78345049776258
    endloop
  endfacet
  facet normal 0.218867 0.000000 0.975755
    outer loop
      vertex 131.34017655522493 19.14666666666666 -14.99269856364732
      vertex 145.71275914530506 27.99999928571429 -18.21654950223742
      vertex 145.71275914530506 27.999999584126986 -18.21654950223742
    endloop
  endfacet
  facet normal 0.218867 0.000000 0.975755
    outer loop
      vertex 131.34017655522493 19.14666666666666 -14.99269856364732
      vertex 131.34017655522493 14.883333333333328 -14.99269856364732
      vertex 145.71275914530506 27.99999928571429 -18.21654950223742
    endloop
  endfacet
  facet normal -1.000000 0.000000 0.000000
    outer loop
      vertex 2 10 1.25
      vertex 2 10 -1.25
      vertex 2 5.2 -1.25
    endloop
  endfacet
  facet normal -1.000000 0.000000 0.000000
    outer loop
      vertex 2 10 1.25
      vertex 2 5.2 -1.25
      vertex 2 5.2 1.25
    endloop
  endfacet
  facet normal -1.000000 0.000000 0.000000
    outer loop
      vertex 2 5.2 1.25
      vertex 2 5.2 -1.25
      vertex 2 0.40000000000000036 -1.25
    endloop
  endfacet
  facet normal -1.000000 0.000000 0.000000
    outer loop
      vertex 2 5.2 1.25
      vertex 2 0.40000000000000036 -1.25
      vertex 2 0.40000000000000036 1.25
    endloop
  endfacet
  facet normal -1.000000 0.000000 0.000000
    outer loop
      vertex 2 0.40000000000000036 1.25
      vertex 2 0.40000000000000036 -1.25
      vertex 2 -4.4 -1.25
    endloop
  endfacet
  facet normal -1.000000 0.000000 0.000000
    outer loop
      vertex 2 0.40000000000000036 1.25
      vertex 2 -4.4 -1.25
      vertex 2 -4.4 1.25
    endloop
  endfacet
  facet normal -1.000000 0.000000 0.000000
    outer loop
      vertex 2 -4.4 1.25
      vertex 2 -4.4 -1.25
      vertex 2 -9.2 -1.25
    endloop
  endfacet
  facet normal -1.000000 0.000000 0.000000
    outer loop
      vertex 2 -4.4 1.25
      vertex 2 -9.2 -1.25
      vertex 2 -9.2 1.25
    endloop
  endfacet
  facet normal -1.000000 0.000000 0.000000
    outer loop
      vertex 2 -9.2 1.25
      vertex 2 -9.2 -1.25
      vertex 2 -14 -1.25
    endloop
  endfacet
  facet normal -1.000000 0.000000 0.000000
    outer loop
      vertex 2 -9.2 1.25
      vertex 2 -14 -1.25
      vertex 2 -14 1.25
    endloop
  endfacet
  facet normal 0.031782 -0.999495 0.000000
    outer loop
      vertex 2 -14 1.25
      vertex 2 -14 -1.25
      vertex 16.429505665558217 -13.541176470588237 1.0796517177597793
    endloop
  endfacet
  facet normal 0.031903 -0.999491 -0.000753
    outer loop
      vertex 2 -14 -1.25
      vertex 16.37049433444178 -13.541176470588237 -1.4196517177597792
      vertex 16.429505665558217 -13.541176470588237 1.0796517177597793
    endloop
  endfacet
  facet normal 0.031755 -0.999495 -0.000750
    outer loop
      vertex 16.429505665558217 -13.541176470588237 1.0796517177597793
      vertex 16.37049433444178 -13.541176470588237 -1.4196517177597792
      vertex 30.858962073494375 -13.082352941176474 0.5686086151750049
    endloop
  endfacet
  facet normal 0.031859 -0.999491 -0.001504
    outer loop
      vertex 16.37049433444178 -13.541176470588237 -1.4196517177597792
      vertex 30.741037926505626 -13.082352941176474 -1.9286086151750053
      vertex 30.858962073494375 -13.082352941176474 0.5686086151750049
    endloop
  endfacet
  facet normal 0.109779 -0.993942 -0.005184
    outer loop
      vertex 30.858962073494375 -13.082352941176474 0.5686086151750049
      vertex 30.741037926505626 -13.082352941176474 -1.9286086151750053
      vertex 45.28832037628217 -11.48421052631579 -0.28312409954583884
    endloop
  endfacet
  facet normal 0.110070 -0.993893 -0.007797
    outer loop
      vertex 30.741037926505626 -13.082352941176474 -1.9286086151750053
      vertex 45.11167962371783 -11.48421052631579 -2.7768759004541623
      vertex 45.28832037628217 -11.48421052631579 -0.28312409954583884
    endloop
  endfacet
  facet normal 0.152662 -0.988219 -0.010814
    outer loop
      vertex 45.28832037628217 -11.48421052631579 -0.28312409954583884
      vertex 45.11167962371783 -11.48421052631579 -2.7768759004541623
      vertex 59.71753253864955 -9.2421052631579 -1.475537826063568
    endloop
  endfacet
  facet normal 0.152972 -0.988125 -0.014447
    outer loop
      vertex 45.11167962371783 -11.48421052631579 -2.7768759004541623
      vertex 59.48246746135045 -9.2421052631579 -3.9644621739364334
      vertex 59.71753253864955 -9.2421052631579 -1.475537826063568
    endloop
  endfacet
  facet normal 0.152040 -0.988270 -0.014359
    outer loop
      vertex 59.71753253864955 -9.2421052631579 -1.475537826063568
      vertex 59.48246746135045 -9.2421052631579 -3.9644621739364334
      vertex 74.14655172413794 -7.0000000000000036 -3.0086206896551726
    endloop
  endfacet
  facet normal 0.152262 -0.988177 -0.017975
    outer loop
      vertex 59.48246746135045 -9.2421052631579 -3.9644621739364334
      vertex 73.85344827586206 -7.0000000000000036 -5.491379310344827
      vertex 74.14655172413794 -7.0000000000000036 -3.0086206896551726
    endloop
  endfacet
  facet normal 0.279707 -0.959517 -0.033021
    outer loop
      vertex 74.14655172413794 -7.0000000000000036 -3.0086206896551726
      vertex 73.85344827586206 -7.0000000000000036 -5.491379310344827
      vertex 88.57533265893552 -2.7294117647058798 -4.882357701631609
    endloop
  endfacet
  facet normal 0.279893 -0.959212 -0.039651
    outer loop
      vertex 73.85344827586206 -7.0000000000000036 -5.491379310344827
      vertex 88.22466734106449 -2.7294117647058798 -7.357642298368395
      vertex 88.57533265893552 -2.7294117647058798 -4.882357701631609
    endloop
  endfacet
  facet normal 0.278029 -0.959765 -0.039387
    outer loop
      vertex 88.57533265893552 -2.7294117647058798 -4.882357701631609
      vertex 88.22466734106449 -2.7294117647058798 -7.357642298368395
      vertex 103.00383196662543 1.5411764705882334 -7.096730958232708
    endloop
  endfacet
  facet normal 0.278058 -0.959464 -0.045957
    outer loop
      vertex 88.22466734106449 -2.7294117647058798 -7.357642298368395
      vertex 102.59616803337457 1.5411764705882334 -9.563269041767288
      vertex 103.00383196662543 1.5411764705882334 -7.096730958232708
    endloop
  endfacet
  facet normal 0.381440 -0.922242 -0.063043
    outer loop
      vertex 103.00383196662543 1.5411764705882334 -7.096730958232708
      vertex 102.59616803337457 1.5411764705882334 -9.563269041767288
      vertex 117.43200846844759 7.683333333333337 -9.651719872924504
    endloop
  endfacet
  facet normal 0.381162 -0.921700 -0.071997
    outer loop
      vertex 102.59616803337457 1.5411764705882334 -9.563269041767288
      vertex 116.96799153155241 7.683333333333337 -12.108280127075501
      vertex 117.43200846844759 7.683333333333337 -9.651719872924504
    endloop
  endfacet
  facet normal 0.431879 -0.898235 -0.081577
    outer loop
      vertex 117.43200846844759 7.683333333333337 -9.651719872924504
      vertex 116.96799153155241 7.683333333333337 -12.108280127075501
      vertex 131.85982344477506 14.883333333333328 -12.547301436352676
    endloop
  endfacet
  facet normal 0.431258 -0.897563 -0.091642
    outer loop
      vertex 116.96799153155241 7.683333333333337 -12.108280127075501
      vertex 131.34017655522493 14.883333333333328 -14.99269856364732
      vertex 131.85982344477506 14.883333333333328 -12.547301436352676
    endloop
  endfacet
  facet normal 0.649147 -0.748050 -0.137944
    outer loop
      vertex 131.85982344477506 14.883333333333328 -12.547301436352676
      vertex 131.34017655522493 14.883333333333328 -14.99269856364732
      vertex 146.28724085469494 27.99999928571429 -15.78345049776258
    endloop
  endfacet
  facet normal 0.647258 -0.746794 -0.152825
    outer loop
      vertex 131.34017655522493 14.883333333333328 -14.99269856364732
      vertex 145.71275914530506 27.99999928571429 -18.21654950223742
      vertex 146.28724085469494 27.99999928571429 -15.78345049776258
    endloop
  endfacet
  facet normal 0.973240 0.000000 -0.229793
    outer loop
      vertex 146.28724085469494 27.99999928571429 -15.78345049776258
      vertex 145.71275914530506 27.99999928571429 -18.21654950223742
      vertex 145.71275914530506 27.999999584126986 -18.21654950223742
    endloop
  endfacet
  facet normal 0.973240 0.000000 -0.229793
    outer loop
      vertex 146.28724085469494 27.99999928571429 -15.78345049776258
      vertex 145.71275914530506 27.999999584126986 -18.21654950223742
      vertex 146.28724085469494 27.999999584126986 -15.78345049776258
    endloop
  endfacet
  facet normal 0.973240 0.000000 -0.229793
    outer loop
      vertex 146.28724085469494 27.999999584126986 -15.78345049776258
      vertex 145.71275914530506 27.999999584126986 -18.21654950223742
      vertex 145.71275914530506 27.999999882539683 -18.21654950223742
    endloop
  endfacet
  facet normal 0.973240 0.000000 -0.229793
    outer loop
      vertex 146.28724085469494 27.999999584126986 -15.78345049776258
      vertex 145.71275914530506 27.999999882539683 -18.21654950223742
      vertex 146.28724085469494 27.999999882539683 -15.78345049776258
    endloop
  endfacet
  facet normal 0.973240 0.000000 -0.229793
    outer loop
      vertex 146.28724085469494 27.999999882539683 -15.78345049776258
      vertex 145.71275914530506 27.999999882539683 -18.21654950223742
      vertex 145.71275914530506 28.00000018095238 -18.21654950223742
    endloop
  endfacet
  facet normal 0.973240 0.000000 -0.229793
    outer loop
      vertex 146.28724085469494 27.999999882539683 -15.78345049776258
      vertex 145.71275914530506 28.00000018095238 -18.21654950223742
      vertex 146.28724085469494 28.00000018095238 -15.78345049776258
    endloop
  endfacet
  facet normal 0.973240 0.000000 -0.229793
    outer loop
      vertex 146.28724085469494 28.00000018095238 -15.78345049776258
      vertex 145.71275914530506 28.00000018095238 -18.21654950223742
      vertex 145.71275914530506 28.000000479365077 -18.21654950223742
    endloop
  endfacet
  facet normal 0.973240 0.000000 -0.229793
    outer loop
      vertex 146.28724085469494 28.00000018095238 -15.78345049776258
      vertex 145.71275914530506 28.000000479365077 -18.21654950223742
      vertex 146.28724085469494 28.000000479365077 -15.78345049776258
    endloop
  endfacet
  facet normal 0.973240 0.000000 -0.229793
    outer loop
      vertex 146.28724085469494 28.000000479365077 -15.78345049776258
      vertex 145.71275914530506 28.000000479365077 -18.21654950223742
      vertex 145.71275914530506 28.000000777777775 -18.21654950223742
    endloop
  endfacet
  facet normal 0.973240 0.000000 -0.229793
    outer loop
      vertex 146.28724085469494 28.000000479365077 -15.78345049776258
      vertex 145.71275914530506 28.000000777777775 -18.21654950223742
      vertex 146.28724085469494 28.000000777777775 -15.78345049776258
    endloop
  endfacet
  facet normal 0.473412 0.873720 -0.111778
    outer loop
      vertex 146.28724085469494 28.000000777777775 -15.78345049776258
      vertex 145.71275914530506 28.000000777777775 -18.21654950223742
      vertex 131.34017655522493 36.2 -14.99269856364732
    endloop
  endfacet
  facet normal 0.474423 0.874505 -0.100815
    outer loop
      vertex 146.28724085469494 28.000000777777775 -15.78345049776258
      vertex 131.34017655522493 36.2 -14.99269856364732
      vertex 131.85982344477506 36.2 -12.547301436352676
    endloop
  endfacet
  facet normal 0.159220 0.986663 -0.033834
    outer loop
      vertex 131.85982344477506 36.2 -12.547301436352676
      vertex 131.34017655522493 36.2 -14.99269856364732
      vertex 116.96799153155241 38.61818181818182 -12.108280127075501
    endloop
  endfacet
  facet normal 0.159346 0.986764 -0.030099
    outer loop
      vertex 131.85982344477506 36.2 -12.547301436352676
      vertex 116.96799153155241 38.61818181818182 -12.108280127075501
      vertex 117.43200846844759 38.61818181818182 -9.651719872924504
    endloop
  endfacet
  facet normal 0.033033 0.999435 -0.006240
    outer loop
      vertex 117.43200846844759 38.61818181818182 -9.651719872924504
      vertex 116.96799153155241 38.61818181818182 -12.108280127075501
      vertex 102.59616803337457 39.10909090909091 -9.563269041767288
    endloop
  endfacet
  facet normal 0.033038 0.999439 -0.005460
    outer loop
      vertex 117.43200846844759 38.61818181818182 -9.651719872924504
      vertex 102.59616803337457 39.10909090909091 -9.563269041767288
      vertex 103.00383196662543 39.10909090909091 -7.096730958232708
    endloop
  endfacet
  facet normal 0.033295 0.999430 -0.005503
    outer loop
      vertex 103.00383196662543 39.10909090909091 -7.096730958232708
      vertex 102.59616803337457 39.10909090909091 -9.563269041767288
      vertex 88.22466734106449 39.6 -7.357642298368395
    endloop
  endfacet
  facet normal 0.033281 0.999435 -0.004715
    outer loop
      vertex 103.00383196662543 39.10909090909091 -7.096730958232708
      vertex 88.22466734106449 39.6 -7.357642298368395
      vertex 88.57533265893552 39.6 -4.882357701631609
    endloop
  endfacet
  facet normal 0.033523 0.999427 -0.004749
    outer loop
      vertex 88.57533265893552 39.6 -4.882357701631609
      vertex 88.22466734106449 39.6 -7.357642298368395
      vertex 73.85344827586206 40.09090909090909 -5.491379310344827
    endloop
  endfacet
  facet normal 0.033490 0.999431 -0.003954
    outer loop
      vertex 88.57533265893552 39.6 -4.882357701631609
      vertex 73.85344827586206 40.09090909090909 -5.491379310344827
      vertex 74.14655172413794 40.09090909090909 -3.0086206896551726
    endloop
  endfacet
  facet normal 0.026730 0.999638 -0.003156
    outer loop
      vertex 74.14655172413794 40.09090909090909 -3.0086206896551726
      vertex 73.85344827586206 40.09090909090909 -5.491379310344827
      vertex 59.48246746135045 40.480000000000004 -3.9644621739364334
    endloop
  endfacet
  facet normal 0.026688 0.999641 -0.002521
    outer loop
      vertex 74.14655172413794 40.09090909090909 -3.0086206896551726
      vertex 59.48246746135045 40.480000000000004 -3.9644621739364334
      vertex 59.71753253864955 40.480000000000004 -1.475537826063568
    endloop
  endfacet
  facet normal -0.008285 0.999965 0.000783
    outer loop
      vertex 59.71753253864955 40.480000000000004 -1.475537826063568
      vertex 59.48246746135045 40.480000000000004 -3.9644621739364334
      vertex 45.11167962371783 40.36 -2.7768759004541623
    endloop
  endfacet
  facet normal -0.008268 0.999966 0.000586
    outer loop
      vertex 59.71753253864955 40.480000000000004 -1.475537826063568
      vertex 45.11167962371783 40.36 -2.7768759004541623
      vertex 45.28832037628217 40.36 -0.28312409954583884
    endloop
  endfacet
  facet normal -0.052592 0.998609 0.003725
    outer loop
      vertex 45.28832037628217 40.36 -0.28312409954583884
      vertex 45.11167962371783 40.36 -2.7768759004541623
      vertex 30.741037926505626 39.6 -1.9286086151750053
    endloop
  endfacet
  facet normal -0.052452 0.998620 0.002477
    outer loop
      vertex 45.28832037628217 40.36 -0.28312409954583884
      vertex 30.741037926505626 39.6 -1.9286086151750053
      vertex 30.858962073494375 39.6 0.5686086151750049
    endloop
  endfacet
  facet normal -0.476301 0.878994 0.022492
    outer loop
      vertex 30.858962073494375 39.6 0.5686086151750049
      vertex 30.741037926505626 39.6 -1.9286086151750053
      vertex 16.37049433444178 31.8 -1.4196517177597792
    endloop
  endfacet
  facet normal -0.475193 0.879810 0.011220
    outer loop
      vertex 30.858962073494375 39.6 0.5686086151750049
      vertex 16.37049433444178 31.8 -1.4196517177597792
      vertex 16.429505665558217 31.8 1.0796517177597793
    endloop
  endfacet
  facet normal -0.834685 0.550375 0.019708
    outer loop
      vertex 16.429505665558217 31.8 1.0796517177597793
      vertex 16.37049433444178 31.8 -1.4196517177597792
      vertex 2 10 -1.25
    endloop
  endfacet
  facet normal -0.833879 0.551948 0.000000
    outer loop
      vertex 16.429505665558217 31.8 1.0796517177597793
      vertex 2 10 -1.25
      vertex 2 10 1.25
    endloop
  endfacet
endsolid bat_wing_left
