solid guitar_lower_bout
  facet normal 0.000000 0.000000 -1.000000
    outer loop
      vertex 49.67307692307692 -8.881784197001252e-16 -17.25
      vertex 25.66442307692308 -33.034615384615385 -17.25
      vertex 14.901923076923076 -2.664535259100376e-16 -17.25
    endloop
  endfacet
  facet normal 0.000000 0.000000 -1.000000
    outer loop
      vertex 49.67307692307692 -8.881784197001252e-16 -17.25
      vertex 36.426923076923075 -39.637499999999996 -17.25
      vertex 25.66442307692308 -33.034615384615385 -17.25
    endloop
  endfacet
  facet normal 0.000000 0.000000 -1.000000
    outer loop
      vertex 49.67307692307692 -8.881784197001252e-16 -17.25
      vertex 47.18942307692308 -41.387499999999996 -17.25
      vertex 36.426923076923075 -39.637499999999996 -17.25
    endloop
  endfacet
  facet normal 0.000000 0.000000 -1.000000
    outer loop
      vertex 49.67307692307692 -8.881784197001252e-16 -17.25
      vertex 57.95192307692307 -39.637499999999996 -17.25
      vertex 47.18942307692308 -41.387499999999996 -17.25
    endloop
  endfacet
  facet normal 0.000000 0.000000 -1.000000
    outer loop
      vertex 49.67307692307692 -8.881784197001252e-16 -17.25
      vertex 68.71442307692308 -34.724999999999994 -17.25
      vertex 57.95192307692307 -39.637499999999996 -17.25
    endloop
  endfacet
  facet normal 0.000000 0.000000 -1.000000
    outer loop
      vertex 49.67307692307692 -8.881784197001252e-16 -17.25
      vertex 79.47692307692307 -29.79375 -17.25
      vertex 68.71442307692308 -34.724999999999994 -17.25
    endloop
  endfacet
  facet normal 0.000000 0.000000 -1.000000
    outer loop
      vertex 49.67307692307692 -8.881784197001252e-16 -17.25
      vertex 79.47692307692307 29.79375 -17.25
      vertex 79.47692307692307 -29.79375 -17.25
    endloop
  endfacet
  facet normal 0.000000 0.000000 -1.000000
    outer loop
      vertex 49.67307692307692 -8.881784197001252e-16 -17.25
      vertex 68.71442307692308 34.724999999999994 -17.25
      vertex 79.47692307692307 29.79375 -17.25
    endloop
  endfacet
  facet normal 0.000000 0.000000 -1.000000
    outer loop
      vertex 49.67307692307692 -8.881784197001252e-16 -17.25
      vertex 57.95192307692307 39.637499999999996 -17.25
      vertex 68.71442307692308 34.724999999999994 -17.25
    endloop
  endfacet
  facet normal 0.000000 0.000000 -1.000000
    outer loop
      vertex 49.67307692307692 -8.881784197001252e-16 -17.25
      vertex 47.18942307692308 41.387499999999996 -17.25
      vertex 57.95192307692307 39.637499999999996 -17.25
    endloop
  endfacet
  facet normal 0.000000 0.000000 -1.000000
    outer loop
      vertex 49.67307692307692 -8.881784197001252e-16 -17.25
      vertex 36.426923076923075 39.637499999999996 -17.25
      vertex 47.18942307692308 41.387499999999996 -17.25
    endloop
  endfacet
  facet normal 0.000000 0.000000 -1.000000
    outer loop
      vertex 49.67307692307692 -8.881784197001252e-16 -17.25
      vertex 25.66442307692308 33.034615384615385 -17.25
      vertex 36.426923076923075 39.637499999999996 -17.25
    endloop
  endfacet
  facet normal 0.000000 0.000000 -1.000000
    outer loop
      vertex 49.67307692307692 -8.881784197001252e-16 -17.25
      vertex 14.901923076923076 -2.664535259100376e-16 -17.25
      vertex 25.66442307692308 33.034615384615385 -17.25
    endloop
  endfacet
  facet normal -0.359988 -0.117282 -0.925556
    outer loop
      vertex 14.901923076923076 -2.664535259100376e-16 -17.25
      vertex 25.66442307692308 -33.034615384615385 -17.25
      vertex 2.4836538461538495 -4.44089209850063e-17 -12.42
    endloop
  endfacet
  facet normal -0.359988 -0.117282 -0.925556
    outer loop
      vertex 25.66442307692308 -33.034615384615385 -17.25
      vertex 17.089903846153845 -44.832692307692305 -12.42
      vertex 2.4836538461538495 -4.44089209850063e-17 -12.42
    endloop
  endfacet
  facet normal -0.164852 -0.268704 -0.949011
    outer loop
      vertex 25.66442307692308 -33.034615384615385 -17.25
      vertex 36.426923076923075 -39.637499999999996 -17.25
      vertex 17.089903846153845 -44.832692307692305 -12.42
    endloop
  endfacet
  facet normal -0.164852 -0.268704 -0.949011
    outer loop
      vertex 36.426923076923075 -39.637499999999996 -17.25
      vertex 31.696153846153848 -53.793749999999996 -12.42
      vertex 17.089903846153845 -44.832692307692305 -12.42
    endloop
  endfacet
  facet normal -0.050000 -0.307503 -0.950233
    outer loop
      vertex 36.426923076923075 -39.637499999999996 -17.25
      vertex 47.18942307692308 -41.387499999999996 -17.25
      vertex 46.302403846153844 -56.168749999999996 -12.42
    endloop
  endfacet
  facet normal -0.050000 -0.307503 -0.950233
    outer loop
      vertex 36.426923076923075 -39.637499999999996 -17.25
      vertex 46.302403846153844 -56.168749999999996 -12.42
      vertex 31.696153846153848 -53.793749999999996 -12.42
    endloop
  endfacet
  facet normal 0.050888 -0.312959 -0.948402
    outer loop
      vertex 47.18942307692308 -41.387499999999996 -17.25
      vertex 57.95192307692307 -39.637499999999996 -17.25
      vertex 60.90865384615385 -53.793749999999996 -12.42
    endloop
  endfacet
  facet normal 0.050888 -0.312959 -0.948402
    outer loop
      vertex 47.18942307692308 -41.387499999999996 -17.25
      vertex 60.90865384615385 -53.793749999999996 -12.42
      vertex 46.302403846153844 -56.168749999999996 -12.42
    endloop
  endfacet
  facet normal 0.134514 -0.294698 -0.946076
    outer loop
      vertex 57.95192307692307 -39.637499999999996 -17.25
      vertex 68.71442307692308 -34.724999999999994 -17.25
      vertex 75.51490384615384 -47.12678571428571 -12.42
    endloop
  endfacet
  facet normal 0.134514 -0.294698 -0.946076
    outer loop
      vertex 57.95192307692307 -39.637499999999996 -17.25
      vertex 75.51490384615384 -47.12678571428571 -12.42
      vertex 60.90865384615385 -53.793749999999996 -12.42
    endloop
  endfacet
  facet normal 0.134926 -0.294477 -0.946086
    outer loop
      vertex 68.71442307692308 -34.724999999999994 -17.25
      vertex 79.47692307692307 -29.79375 -17.25
      vertex 75.51490384615384 -47.12678571428571 -12.42
    endloop
  endfacet
  facet normal 0.134926 -0.294477 -0.946086
    outer loop
      vertex 79.47692307692307 -29.79375 -17.25
      vertex 90.12115384615385 -40.434374999999996 -12.42
      vertex 75.51490384615384 -47.12678571428571 -12.42
    endloop
  endfacet
  facet normal 0.413215 0.000000 -0.910633
    outer loop
      vertex 79.47692307692307 -29.79375 -17.25
      vertex 79.47692307692307 29.79375 -17.25
      vertex 90.12115384615385 40.434374999999996 -12.42
    endloop
  endfacet
  facet normal 0.413215 0.000000 -0.910633
    outer loop
      vertex 79.47692307692307 -29.79375 -17.25
      vertex 90.12115384615385 40.434374999999996 -12.42
      vertex 90.12115384615385 -40.434374999999996 -12.42
    endloop
  endfacet
  facet normal 0.134926 0.294477 -0.946086
    outer loop
      vertex 79.47692307692307 29.79375 -17.25
      vertex 68.71442307692308 34.724999999999994 -17.25
      vertex 75.51490384615384 47.12678571428571 -12.42
    endloop
  endfacet
  facet normal 0.134926 0.294477 -0.946086
    outer loop
      vertex 79.47692307692307 29.79375 -17.25
      vertex 75.51490384615384 47.12678571428571 -12.42
      vertex 90.12115384615385 40.434374999999996 -12.42
    endloop
  endfacet
  facet normal 0.134514 0.294698 -0.946076
    outer loop
      vertex 68.71442307692308 34.724999999999994 -17.25
      vertex 57.95192307692307 39.637499999999996 -17.25
      vertex 75.51490384615384 47.12678571428571 -12.42
    endloop
  endfacet
  facet normal 0.134514 0.294698 -0.946076
    outer loop
      vertex 57.95192307692307 39.637499999999996 -17.25
      vertex 60.90865384615385 53.793749999999996 -12.42
      vertex 75.51490384615384 47.12678571428571 -12.42
    endloop
  endfacet
  facet normal 0.050888 0.312959 -0.948402
    outer loop
      vertex 57.95192307692307 39.637499999999996 -17.25
      vertex 47.18942307692308 41.387499999999996 -17.25
      vertex 60.90865384615385 53.793749999999996 -12.42
    endloop
  endfacet
  facet normal 0.050888 0.312959 -0.948402
    outer loop
      vertex 47.18942307692308 41.387499999999996 -17.25
      vertex 46.302403846153844 56.168749999999996 -12.42
      vertex 60.90865384615385 53.793749999999996 -12.42
    endloop
  endfacet
  facet normal -0.050000 0.307503 -0.950233
    outer loop
      vertex 47.18942307692308 41.387499999999996 -17.25
      vertex 36.426923076923075 39.637499999999996 -17.25
      vertex 46.302403846153844 56.168749999999996 -12.42
    endloop
  endfacet
  facet normal -0.050000 0.307503 -0.950233
    outer loop
      vertex 36.426923076923075 39.637499999999996 -17.25
      vertex 31.696153846153848 53.793749999999996 -12.42
      vertex 46.302403846153844 56.168749999999996 -12.42
    endloop
  endfacet
  facet normal -0.164852 0.268704 -0.949011
    outer loop
      vertex 36.426923076923075 39.637499999999996 -17.25
      vertex 25.66442307692308 33.034615384615385 -17.25
      vertex 17.089903846153845 44.832692307692305 -12.42
    endloop
  endfacet
  facet normal -0.164852 0.268704 -0.949011
    outer loop
      vertex 36.426923076923075 39.637499999999996 -17.25
      vertex 17.089903846153845 44.832692307692305 -12.42
      vertex 31.696153846153848 53.793749999999996 -12.42
    endloop
  endfacet
  facet normal -0.359988 0.117282 -0.925556
    outer loop
      vertex 25.66442307692308 33.034615384615385 -17.25
      vertex 14.901923076923076 -2.664535259100376e-16 -17.25
      vertex 2.4836538461538495 -4.44089209850063e-17 -12.42
    endloop
  endfacet
  facet normal -0.359988 0.117282 -0.925556
    outer loop
      vertex 25.66442307692308 33.034615384615385 -17.25
      vertex 2.4836538461538495 -4.44089209850063e-17 -12.42
      vertex 17.089903846153845 44.832692307692305 -12.42
    endloop
  endfacet
  facet normal -0.934077 -0.304317 -0.186789
    outer loop
      vertex 2.4836538461538495 -4.44089209850063e-17 -12.42
      vertex 17.089903846153845 -44.832692307692305 -12.42
      vertex 0 0 0
    endloop
  endfacet
  facet normal -0.934077 -0.304317 -0.186789
    outer loop
      vertex 17.089903846153845 -44.832692307692305 -12.42
      vertex 15.375 -47.19230769230769 0
      vertex 0 0 0
    endloop
  endfacet
  facet normal -0.509166 -0.829925 -0.227977
    outer loop
      vertex 17.089903846153845 -44.832692307692305 -12.42
      vertex 31.696153846153848 -53.793749999999996 -12.42
      vertex 15.375 -47.19230769230769 0
    endloop
  endfacet
  facet normal -0.509166 -0.829925 -0.227977
    outer loop
      vertex 31.696153846153848 -53.793749999999996 -12.42
      vertex 30.75 -56.625 0
      vertex 15.375 -47.19230769230769 0
    endloop
  endfacet
  facet normal -0.156160 -0.960382 -0.230824
    outer loop
      vertex 31.696153846153848 -53.793749999999996 -12.42
      vertex 46.302403846153844 -56.168749999999996 -12.42
      vertex 46.125 -59.125 0
    endloop
  endfacet
  facet normal -0.156160 -0.960382 -0.230824
    outer loop
      vertex 31.696153846153848 -53.793749999999996 -12.42
      vertex 46.125 -59.125 0
      vertex 30.75 -56.625 0
    endloop
  endfacet
  facet normal 0.156319 -0.961363 -0.226594
    outer loop
      vertex 46.302403846153844 -56.168749999999996 -12.42
      vertex 60.90865384615385 -53.793749999999996 -12.42
      vertex 61.5 -56.625 0
    endloop
  endfacet
  facet normal 0.156319 -0.961363 -0.226594
    outer loop
      vertex 46.302403846153844 -56.168749999999996 -12.42
      vertex 61.5 -56.625 0
      vertex 46.125 -59.125 0
    endloop
  endfacet
  facet normal 0.404921 -0.887116 -0.221505
    outer loop
      vertex 60.90865384615385 -53.793749999999996 -12.42
      vertex 75.51490384615384 -47.12678571428571 -12.42
      vertex 76.875 -49.607142857142854 0
    endloop
  endfacet
  facet normal 0.404921 -0.887116 -0.221505
    outer loop
      vertex 60.90865384615385 -53.793749999999996 -12.42
      vertex 76.875 -49.607142857142854 0
      vertex 61.5 -56.625 0
    endloop
  endfacet
  facet normal 0.406196 -0.886527 -0.221527
    outer loop
      vertex 75.51490384615384 -47.12678571428571 -12.42
      vertex 90.12115384615385 -40.434374999999996 -12.42
      vertex 76.875 -49.607142857142854 0
    endloop
  endfacet
  facet normal 0.406196 -0.886527 -0.221527
    outer loop
      vertex 90.12115384615385 -40.434374999999996 -12.42
      vertex 92.25 -42.5625 0
      vertex 76.875 -49.607142857142854 0
    endloop
  endfacet
  facet normal 0.985626 0.000000 -0.168941
    outer loop
      vertex 90.12115384615385 -40.434374999999996 -12.42
      vertex 90.12115384615385 40.434374999999996 -12.42
      vertex 92.25 42.5625 0
    endloop
  endfacet
  facet normal 0.985626 0.000000 -0.168941
    outer loop
      vertex 90.12115384615385 -40.434374999999996 -12.42
      vertex 92.25 42.5625 0
      vertex 92.25 -42.5625 0
    endloop
  endfacet
  facet normal 0.406196 0.886527 -0.221527
    outer loop
      vertex 90.12115384615385 40.434374999999996 -12.42
      vertex 75.51490384615384 47.12678571428571 -12.42
      vertex 76.875 49.607142857142854 0
    endloop
  endfacet
  facet normal 0.406196 0.886527 -0.221527
    outer loop
      vertex 90.12115384615385 40.434374999999996 -12.42
      vertex 76.875 49.607142857142854 0
      vertex 92.25 42.5625 0
    endloop
  endfacet
  facet normal 0.404921 0.887116 -0.221505
    outer loop
      vertex 75.51490384615384 47.12678571428571 -12.42
      vertex 60.90865384615385 53.793749999999996 -12.42
      vertex 76.875 49.607142857142854 0
    endloop
  endfacet
  facet normal 0.404921 0.887116 -0.221505
    outer loop
      vertex 60.90865384615385 53.793749999999996 -12.42
      vertex 61.5 56.625 0
      vertex 76.875 49.607142857142854 0
    endloop
  endfacet
  facet normal 0.156319 0.961363 -0.226594
    outer loop
      vertex 60.90865384615385 53.793749999999996 -12.42
      vertex 46.302403846153844 56.168749999999996 -12.42
      vertex 61.5 56.625 0
    endloop
  endfacet
  facet normal 0.156319 0.961363 -0.226594
    outer loop
      vertex 46.302403846153844 56.168749999999996 -12.42
      vertex 46.125 59.125 0
      vertex 61.5 56.625 0
    endloop
  endfacet
  facet normal -0.156160 0.960382 -0.230824
    outer loop
      vertex 46.302403846153844 56.168749999999996 -12.42
      vertex 31.696153846153848 53.793749999999996 -12.42
      vertex 46.125 59.125 0
    endloop
  endfacet
  facet normal -0.156160 0.960382 -0.230824
    outer loop
      vertex 31.696153846153848 53.793749999999996 -12.42
      vertex 30.75 56.625 0
      vertex 46.125 59.125 0
    endloop
  endfacet
  facet normal -0.509166 0.829925 -0.227977
    outer loop
      vertex 31.696153846153848 53.793749999999996 -12.42
      vertex 17.089903846153845 44.832692307692305 -12.42
      vertex 15.375 47.19230769230769 0
    endloop
  endfacet
  facet normal -0.509166 0.829925 -0.227977
    outer loop
      vertex 31.696153846153848 53.793749999999996 -12.42
      vertex 15.375 47.19230769230769 0
      vertex 30.75 56.625 0
    endloop
  endfacet
  facet normal -0.934077 0.304317 -0.186789
    outer loop
      vertex 17.089903846153845 44.832692307692305 -12.42
      vertex 2.4836538461538495 -4.44089209850063e-17 -12.42
      vertex 0 0 0
    endloop
  endfacet
  facet normal -0.934077 0.304317 -0.186789
    outer loop
      vertex 17.089903846153845 44.832692307692305 -12.42
      vertex 0 0 0
      vertex 15.375 47.19230769230769 0
    endloop
  endfacet
  facet normal -0.934077 -0.304317 0.186789
    outer loop
      vertex 0 0 0
      vertex 15.375 -47.19230769230769 0
      vertex 17.089903846153845 -44.832692307692305 12.42
    endloop
  endfacet
  facet normal -0.934077 -0.304317 0.186789
    outer loop
      vertex 0 0 0
      vertex 17.089903846153845 -44.832692307692305 12.42
      vertex 2.4836538461538495 -4.44089209850063e-17 12.42
    endloop
  endfacet
  facet normal -0.509166 -0.829925 0.227977
    outer loop
      vertex 15.375 -47.19230769230769 0
      vertex 30.75 -56.625 0
      vertex 31.696153846153848 -53.793749999999996 12.42
    endloop
  endfacet
  facet normal -0.509166 -0.829925 0.227977
    outer loop
      vertex 15.375 -47.19230769230769 0
      vertex 31.696153846153848 -53.793749999999996 12.42
      vertex 17.089903846153845 -44.832692307692305 12.42
    endloop
  endfacet
  facet normal -0.156160 -0.960382 0.230824
    outer loop
      vertex 30.75 -56.625 0
      vertex 46.125 -59.125 0
      vertex 31.696153846153848 -53.793749999999996 12.42
    endloop
  endfacet
  facet normal -0.156160 -0.960382 0.230824
    outer loop
      vertex 46.125 -59.125 0
      vertex 46.302403846153844 -56.168749999999996 12.42
      vertex 31.696153846153848 -53.793749999999996 12.42
    endloop
  endfacet
  facet normal 0.156319 -0.961363 0.226594
    outer loop
      vertex 46.125 -59.125 0
      vertex 61.5 -56.625 0
      vertex 46.302403846153844 -56.168749999999996 12.42
    endloop
  endfacet
  facet normal 0.156319 -0.961363 0.226594
    outer loop
      vertex 61.5 -56.625 0
      vertex 60.90865384615385 -53.793749999999996 12.42
      vertex 46.302403846153844 -56.168749999999996 12.42
    endloop
  endfacet
  facet normal 0.404921 -0.887116 0.221505
    outer loop
      vertex 61.5 -56.625 0
      vertex 76.875 -49.607142857142854 0
      vertex 60.90865384615385 -53.793749999999996 12.42
    endloop
  endfacet
  facet normal 0.404921 -0.887116 0.221505
    outer loop
      vertex 76.875 -49.607142857142854 0
      vertex 75.51490384615384 -47.12678571428571 12.42
      vertex 60.90865384615385 -53.793749999999996 12.42
    endloop
  endfacet
  facet normal 0.406196 -0.886527 0.221527
    outer loop
      vertex 76.875 -49.607142857142854 0
      vertex 92.25 -42.5625 0
      vertex 90.12115384615385 -40.434374999999996 12.42
    endloop
  endfacet
  facet normal 0.406196 -0.886527 0.221527
    outer loop
      vertex 76.875 -49.607142857142854 0
      vertex 90.12115384615385 -40.434374999999996 12.42
      vertex 75.51490384615384 -47.12678571428571 12.42
    endloop
  endfacet
  facet normal 0.985626 0.000000 0.168941
    outer loop
      vertex 92.25 -42.5625 0
      vertex 92.25 42.5625 0
      vertex 90.12115384615385 40.434374999999996 12.42
    endloop
  endfacet
  facet normal 0.985626 0.000000 0.168941
    outer loop
      vertex 92.25 -42.5625 0
      vertex 90.12115384615385 40.434374999999996 12.42
      vertex 90.12115384615385 -40.434374999999996 12.42
    endloop
  endfacet
  facet normal 0.406196 0.886527 0.221527
    outer loop
      vertex 92.25 42.5625 0
      vertex 76.875 49.607142857142854 0
      vertex 90.12115384615385 40.434374999999996 12.42
    endloop
  endfacet
  facet normal 0.406196 0.886527 0.221527
    outer loop
      vertex 76.875 49.607142857142854 0
      vertex 75.51490384615384 47.12678571428571 12.42
      vertex 90.12115384615385 40.434374999999996 12.42
    endloop
  endfacet
  facet normal 0.404921 0.887116 0.221505
    outer loop
      vertex 76.875 49.607142857142854 0
      vertex 61.5 56.625 0
      vertex 60.90865384615385 53.793749999999996 12.42
    endloop
  endfacet
  facet normal 0.404921 0.887116 0.221505
    outer loop
      vertex 76.875 49.607142857142854 0
      vertex 60.90865384615385 53.793749999999996 12.42
      vertex 75.51490384615384 47.12678571428571 12.42
    endloop
  endfacet
  facet normal 0.156319 0.961363 0.226594
    outer loop
      vertex 61.5 56.625 0
      vertex 46.125 59.125 0
      vertex 46.302403846153844 56.168749999999996 12.42
    endloop
  endfacet
  facet normal 0.156319 0.961363 0.226594
    outer loop
      vertex 61.5 56.625 0
      vertex 46.302403846153844 56.168749999999996 12.42
      vertex 60.90865384615385 53.793749999999996 12.42
    endloop
  endfacet
  facet normal -0.156160 0.960382 0.230824
    outer loop
      vertex 46.125 59.125 0
      vertex 30.75 56.625 0
      vertex 31.696153846153848 53.793749999999996 12.42
    endloop
  endfacet
  facet normal -0.156160 0.960382 0.230824
    outer loop
      vertex 46.125 59.125 0
      vertex 31.696153846153848 53.793749999999996 12.42
      vertex 46.302403846153844 56.168749999999996 12.42
    endloop
  endfacet
  facet normal -0.509166 0.829925 0.227977
    outer loop
      vertex 30.75 56.625 0
      vertex 15.375 47.19230769230769 0
      vertex 31.696153846153848 53.793749999999996 12.42
    endloop
  endfacet
  facet normal -0.509166 0.829925 0.227977
    outer loop
      vertex 15.375 47.19230769230769 0
      vertex 17.089903846153845 44.832692307692305 12.42
      vertex 31.696153846153848 53.793749999999996 12.42
    endloop
  endfacet
  facet normal -0.934077 0.304317 0.186789
    outer loop
      vertex 15.375 47.19230769230769 0
      vertex 0 0 0
      vertex 17.089903846153845 44.832692307692305 12.42
    endloop
  endfacet
  facet normal -0.934077 0.304317 0.186789
    outer loop
      vertex 0 0 0
      vertex 2.4836538461538495 -4.44089209850063e-17 12.42
      vertex 17.089903846153845 44.832692307692305 12.42
    endloop
  endfacet
  facet normal -0.359988 -0.117282 0.925556
    outer loop
      vertex 2.4836538461538495 -4.44089209850063e-17 12.42
      vertex 17.089903846153845 -44.832692307692305 12.42
      vertex 25.66442307692308 -33.034615384615385 17.25
    endloop
  endfacet
  facet normal -0.359988 -0.117282 0.925556
    outer loop
      vertex 2.4836538461538495 -4.44089209850063e-17 12.42
      vertex 25.66442307692308 -33.034615384615385 17.25
      vertex 14.901923076923076 -2.664535259100376e-16 17.25
    endloop
  endfacet
  facet normal -0.164852 -0.268704 0.949011
    outer loop
      vertex 17.089903846153845 -44.832692307692305 12.42
      vertex 31.696153846153848 -53.793749999999996 12.42
      vertex 36.426923076923075 -39.637499999999996 17.25
    endloop
  endfacet
  facet normal -0.164852 -0.268704 0.949011
    outer loop
      vertex 17.089903846153845 -44.832692307692305 12.42
      vertex 36.426923076923075 -39.637499999999996 17.25
      vertex 25.66442307692308 -33.034615384615385 17.25
    endloop
  endfacet
  facet normal -0.050000 -0.307503 0.950233
    outer loop
      vertex 31.696153846153848 -53.793749999999996 12.42
      vertex 46.302403846153844 -56.168749999999996 12.42
      vertex 36.426923076923075 -39.637499999999996 17.25
    endloop
  endfacet
  facet normal -0.050000 -0.307503 0.950233
    outer loop
      vertex 46.302403846153844 -56.168749999999996 12.42
      vertex 47.18942307692308 -41.387499999999996 17.25
      vertex 36.426923076923075 -39.637499999999996 17.25
    endloop
  endfacet
  facet normal 0.050888 -0.312959 0.948402
    outer loop
      vertex 46.302403846153844 -56.168749999999996 12.42
      vertex 60.90865384615385 -53.793749999999996 12.42
      vertex 47.18942307692308 -41.387499999999996 17.25
    endloop
  endfacet
  facet normal 0.050888 -0.312959 0.948402
    outer loop
      vertex 60.90865384615385 -53.793749999999996 12.42
      vertex 57.95192307692307 -39.637499999999996 17.25
      vertex 47.18942307692308 -41.387499999999996 17.25
    endloop
  endfacet
  facet normal 0.134514 -0.294698 0.946076
    outer loop
      vertex 60.90865384615385 -53.793749999999996 12.42
      vertex 75.51490384615384 -47.12678571428571 12.42
      vertex 57.95192307692307 -39.637499999999996 17.25
    endloop
  endfacet
  facet normal 0.134514 -0.294698 0.946076
    outer loop
      vertex 75.51490384615384 -47.12678571428571 12.42
      vertex 68.71442307692308 -34.724999999999994 17.25
      vertex 57.95192307692307 -39.637499999999996 17.25
    endloop
  endfacet
  facet normal 0.134926 -0.294477 0.946086
    outer loop
      vertex 75.51490384615384 -47.12678571428571 12.42
      vertex 90.12115384615385 -40.434374999999996 12.42
      vertex 79.47692307692307 -29.79375 17.25
    endloop
  endfacet
  facet normal 0.134926 -0.294477 0.946086
    outer loop
      vertex 75.51490384615384 -47.12678571428571 12.42
      vertex 79.47692307692307 -29.79375 17.25
      vertex 68.71442307692308 -34.724999999999994 17.25
    endloop
  endfacet
  facet normal 0.413215 0.000000 0.910633
    outer loop
      vertex 90.12115384615385 -40.434374999999996 12.42
      vertex 90.12115384615385 40.434374999999996 12.42
      vertex 79.47692307692307 29.79375 17.25
    endloop
  endfacet
  facet normal 0.413215 0.000000 0.910633
    outer loop
      vertex 90.12115384615385 -40.434374999999996 12.42
      vertex 79.47692307692307 29.79375 17.25
      vertex 79.47692307692307 -29.79375 17.25
    endloop
  endfacet
  facet normal 0.134926 0.294477 0.946086
    outer loop
      vertex 90.12115384615385 40.434374999999996 12.42
      vertex 75.51490384615384 47.12678571428571 12.42
      vertex 79.47692307692307 29.79375 17.25
    endloop
  endfacet
  facet normal 0.134926 0.294477 0.946086
    outer loop
      vertex 75.51490384615384 47.12678571428571 12.42
      vertex 68.71442307692308 34.724999999999994 17.25
      vertex 79.47692307692307 29.79375 17.25
    endloop
  endfacet
  facet normal 0.134514 0.294698 0.946076
    outer loop
      vertex 75.51490384615384 47.12678571428571 12.42
      vertex 60.90865384615385 53.793749999999996 12.42
      vertex 57.95192307692307 39.637499999999996 17.25
    endloop
  endfacet
  facet normal 0.134514 0.294698 0.946076
    outer loop
      vertex 75.51490384615384 47.12678571428571 12.42
      vertex 57.95192307692307 39.637499999999996 17.25
      vertex 68.71442307692308 34.724999999999994 17.25
    endloop
  endfacet
  facet normal 0.050888 0.312959 0.948402
    outer loop
      vertex 60.90865384615385 53.793749999999996 12.42
      vertex 46.302403846153844 56.168749999999996 12.42
      vertex 47.18942307692308 41.387499999999996 17.25
    endloop
  endfacet
  facet normal 0.050888 0.312959 0.948402
    outer loop
      vertex 60.90865384615385 53.793749999999996 12.42
      vertex 47.18942307692308 41.387499999999996 17.25
      vertex 57.95192307692307 39.637499999999996 17.25
    endloop
  endfacet
  facet normal -0.050000 0.307503 0.950233
    outer loop
      vertex 46.302403846153844 56.168749999999996 12.42
      vertex 31.696153846153848 53.793749999999996 12.42
      vertex 36.426923076923075 39.637499999999996 17.25
    endloop
  endfacet
  facet normal -0.050000 0.307503 0.950233
    outer loop
      vertex 46.302403846153844 56.168749999999996 12.42
      vertex 36.426923076923075 39.637499999999996 17.25
      vertex 47.18942307692308 41.387499999999996 17.25
    endloop
  endfacet
  facet normal -0.164852 0.268704 0.949011
    outer loop
      vertex 31.696153846153848 53.793749999999996 12.42
      vertex 17.089903846153845 44.832692307692305 12.42
      vertex 36.426923076923075 39.637499999999996 17.25
    endloop
  endfacet
  facet normal -0.164852 0.268704 0.949011
    outer loop
      vertex 17.089903846153845 44.832692307692305 12.42
      vertex 25.66442307692308 33.034615384615385 17.25
      vertex 36.426923076923075 39.637499999999996 17.25
    endloop
  endfacet
  facet normal -0.359988 0.117282 0.925556
    outer loop
      vertex 17.089903846153845 44.832692307692305 12.42
      vertex 2.4836538461538495 -4.44089209850063e-17 12.42
      vertex 25.66442307692308 33.034615384615385 17.25
    endloop
  endfacet
  facet normal -0.359988 0.117282 0.925556
    outer loop
      vertex 2.4836538461538495 -4.44089209850063e-17 12.42
      vertex 14.901923076923076 -2.664535259100376e-16 17.25
      vertex 25.66442307692308 33.034615384615385 17.25
    endloop
  endfacet
  facet normal 0.000000 0.000000 1.000000
    outer loop
      vertex 49.67307692307692 -8.881784197001252e-16 17.25
      vertex 14.901923076923076 -2.664535259100376e-16 17.25
      vertex 25.66442307692308 -33.034615384615385 17.25
    endloop
  endfacet
  facet normal 0.000000 0.000000 1.000000
    outer loop
      vertex 49.67307692307692 -8.881784197001252e-16 17.25
      vertex 25.66442307692308 -33.034615384615385 17.25
      vertex 36.426923076923075 -39.637499999999996 17.25
    endloop
  endfacet
  facet normal 0.000000 0.000000 1.000000
    outer loop
      vertex 49.67307692307692 -8.881784197001252e-16 17.25
      vertex 36.426923076923075 -39.637499999999996 17.25
      vertex 47.18942307692308 -41.387499999999996 17.25
    endloop
  endfacet
  facet normal 0.000000 0.000000 1.000000
    outer loop
      vertex 49.67307692307692 -8.881784197001252e-16 17.25
      vertex 47.18942307692308 -41.387499999999996 17.25
      vertex 57.95192307692307 -39.637499999999996 17.25
    endloop
  endfacet
  facet normal 0.000000 0.000000 1.000000
    outer loop
      vertex 49.67307692307692 -8.881784197001252e-16 17.25
      vertex 57.95192307692307 -39.637499999999996 17.25
      vertex 68.71442307692308 -34.724999999999994 17.25
    endloop
  endfacet
  facet normal 0.000000 0.000000 1.000000
    outer loop
      vertex 49.67307692307692 -8.881784197001252e-16 17.25
      vertex 68.71442307692308 -34.724999999999994 17.25
      vertex 79.47692307692307 -29.79375 17.25
    endloop
  endfacet
  facet normal 0.000000 0.000000 1.000000
    outer loop
      vertex 49.67307692307692 -8.881784197001252e-16 17.25
      vertex 79.47692307692307 -29.79375 17.25
      vertex 79.47692307692307 29.79375 17.25
    endloop
  endfacet
  facet normal 0.000000 0.000000 1.000000
    outer loop
      vertex 49.67307692307692 -8.881784197001252e-16 17.25
      vertex 79.47692307692307 29.79375 17.25
      vertex 68.71442307692308 34.724999999999994 17.25
    endloop
  endfacet
  facet normal 0.000000 0.000000 1.000000
    outer loop
      vertex 49.67307692307692 -8.881784197001252e-16 17.25
      vertex 68.71442307692308 34.724999999999994 17.25
      vertex 57.95192307692307 39.637499999999996 17.25
    endloop
  endfacet
  facet normal 0.000000 0.000000 1.000000
    outer loop
      vertex 49.67307692307692 -8.881784197001252e-16 17.25
      vertex 57.95192307692307 39.637499999999996 17.25
      vertex 47.18942307692308 41.387499999999996 17.25
    endloop
  endfacet
  facet normal 0.000000 0.000000 1.000000
    outer loop
      vertex 49.67307692307692 -8.881784197001252e-16 17.25
      vertex 47.18942307692308 41.387499999999996 17.25
      vertex 36.426923076923075 39.637499999999996 17.25
    endloop
  endfacet
  facet normal 0.000000 0.000000 1.000000
    outer loop
      vertex 49.67307692307692 -8.881784197001252e-16 17.25
      vertex 36.426923076923075 39.637499999999996 17.25
      vertex 25.66442307692308 33.034615384615385 17.25
    endloop
  endfacet
  facet normal 0.000000 0.000000 1.000000
    outer loop
      vertex 49.67307692307692 -8.881784197001252e-16 17.25
      vertex 25.66442307692308 33.034615384615385 17.25
      vertex 14.901923076923076 -2.664535259100376e-16 17.25
    endloop
  endfacet
endsolid guitar_lower_bout
